<svg id="Layer_2" data-name="Layer 2" xmlns="http://www.w3.org/2000/svg" xmlns:xlink="http://www.w3.org/1999/xlink" viewBox="0 0 512 126.92"><defs><style>.cls-1{fill:url(#linear-gradient);}.cls-2{fill:#14b7df;}.cls-3{fill:url(#linear-gradient-2);}.cls-4{fill:url(#linear-gradient-3);}.cls-5{fill:url(#linear-gradient-4);}.cls-6{fill:url(#linear-gradient-5);}.cls-7{fill:url(#linear-gradient-6);}.cls-8{fill:url(#linear-gradient-7);}.cls-9{fill:url(#linear-gradient-8);}.cls-10{isolation:isolate;}</style><linearGradient id="linear-gradient" x1="294.76" y1="81" x2="294.76" y2="11.11" gradientUnits="userSpaceOnUse"><stop offset="0" stop-color="#17b7df"/><stop offset="1" stop-color="#38ac59"/></linearGradient><linearGradient id="linear-gradient-2" x1="46.17" y1="80.9" x2="46.17" y2="11.11" xlink:href="#linear-gradient"/><linearGradient id="linear-gradient-3" x1="96.39" y1="80.9" x2="96.39" y2="11.11" xlink:href="#linear-gradient"/><linearGradient id="linear-gradient-4" x1="146.61" y1="80.91" x2="146.61" y2="11.11" xlink:href="#linear-gradient"/><linearGradient id="linear-gradient-5" x1="217.39" y1="80.92" x2="217.39" y2="11.11" xlink:href="#linear-gradient"/><linearGradient id="linear-gradient-6" x1="453.3" y1="53.83" x2="453.3" y2="37.22" xlink:href="#linear-gradient"/><linearGradient id="linear-gradient-7" x1="375.59" y1="80.91" x2="375.59" y2="11.11" xlink:href="#linear-gradient"/><linearGradient id="linear-gradient-8" x1="453.2" y1="80.91" x2="453.2" y2="8.74" xlink:href="#linear-gradient"/></defs><path class="cls-1" d="M304.06,16.27a8,8,0,0,0-7.4-5.16h-3.8a8,8,0,0,0-7.41,5.16L253.94,80.9h18.32l20.67-44h.12L276.2,80.8l.26.1.26.1L292,41.15,281.57,80.83l.27.07.27.07,11.05-42L287,80.86l.55.08,6.47-44h0l-2.19,44,.55,0,2.11-42.32,2.1,42.28h.28l.27,0L295,36.92h0l6.46,44,.28,0,.27,0-6.45-43.91h.08l11.27,44,.26-.07.27-.07-11-42.86,15.75,43,.32-.12.2-.07L296.71,36.93h.08l8.6,18.31,7,14.93,5.12,10.73h18Z"/><path class="cls-2" d="M105.11,102.61l-6-.5a2.57,2.57,0,0,1-1.89-.73,3.74,3.74,0,0,1-.49-2.25,3.52,3.52,0,0,1,.75-2.65c.5-.44,1.73-.66,3.68-.66A29.24,29.24,0,0,1,105,96a2.52,2.52,0,0,1,1.4.55,1.61,1.61,0,0,1,.39.82A8.12,8.12,0,0,1,107,99v.47h2.12c0-.1,0-.21,0-.35s0-.32,0-.56a7,7,0,0,0-.27-2.11,2.63,2.63,0,0,0-.81-1.31,4.64,4.64,0,0,0-2-1,20.35,20.35,0,0,0-4.11-.28h-.68a21.16,21.16,0,0,0-3.64.21,3.39,3.39,0,0,0-1.61.72,3.8,3.8,0,0,0-1.07,1.67,8.8,8.8,0,0,0-.33,2.67,5.46,5.46,0,0,0,1,3.73,5.33,5.33,0,0,0,3.63,1.31l5.85.46a2.32,2.32,0,0,1,1.69.65,5.09,5.09,0,0,1,.43,2.65,9,9,0,0,1-.12,1.66,1.69,1.69,0,0,1-.36.87,2.54,2.54,0,0,1-1.32.68,11.59,11.59,0,0,1-2.51.21c-2,0-3.3,0-3.94-.11a4,4,0,0,1-1.42-.36,1.88,1.88,0,0,1-.84-1.14,8.88,8.88,0,0,1-.25-2.49v-.36H94.32v.93a8.62,8.62,0,0,0,.34,2.65,3.5,3.5,0,0,0,1,1.66,4.15,4.15,0,0,0,1.82.93,17.43,17.43,0,0,0,3.71.27h1a19,19,0,0,0,4.25-.32,3.58,3.58,0,0,0,1.85-1.09,3.63,3.63,0,0,0,.81-1.56,12.12,12.12,0,0,0,.24-2.8,5.55,5.55,0,0,0-1-3.64A4.76,4.76,0,0,0,105.11,102.61Z"/><rect class="cls-2" x="113.23" y="99.63" width="1.98" height="13.42"/><rect class="cls-2" x="113.23" y="94.07" width="1.98" height="2.24"/><path class="cls-2" d="M133.74,99.45a5.24,5.24,0,0,0-2.52.52,3.8,3.8,0,0,0-1.55,1.7,3.2,3.2,0,0,0-1.43-1.7,5.68,5.68,0,0,0-2.67-.52,5.87,5.87,0,0,0-2.61.49,2.87,2.87,0,0,0-1.41,1.52V99.63h-1.94v13.42h2v-7.8a4.32,4.32,0,0,1,.9-3,3.66,3.66,0,0,1,2.81-1,3.18,3.18,0,0,1,2.21.56,3,3,0,0,1,.58,2.15v9.09H130v-7.8a4.54,4.54,0,0,1,.84-3,3.45,3.45,0,0,1,2.71-1,2.91,2.91,0,0,1,2.27.69,5,5,0,0,1,.58,2.94v8.17h2v-8.79c0-1.81-.34-3.07-1-3.77S135.5,99.45,133.74,99.45Z"/><path class="cls-2" d="M148.59,99.45a5.79,5.79,0,0,0-2.75.55,3.29,3.29,0,0,0-1.51,1.72V99.63h-1.9v18.56h2v-7a3.52,3.52,0,0,0,1.54,1.6,5.89,5.89,0,0,0,2.64.49c1.91,0,3.26-.4,4-1.19s1.18-2.15,1.18-4.1v-3.19c0-2-.39-3.32-1.18-4.11S150.5,99.45,148.59,99.45Zm3.16,8c0,1.69-.22,2.77-.65,3.24a3.51,3.51,0,0,1-2.59.7,4.33,4.33,0,0,1-3.13-1,4.08,4.08,0,0,1-1-3v-2.19a4.11,4.11,0,0,1,1-3,4.33,4.33,0,0,1,3.13-1,3.51,3.51,0,0,1,2.59.7c.43.47.65,1.55.65,3.25Z"/><rect class="cls-2" x="157.4" y="94.07" width="1.98" height="18.98"/><path class="cls-2" d="M169.26,99.45h-.93c-2,0-3.39.39-4.18,1.17s-1.2,2.16-1.2,4.13v3.19c0,2,.4,3.33,1.2,4.12s2.2,1.17,4.21,1.17h.93a6.43,6.43,0,0,0,4-1,4.13,4.13,0,0,0,1.4-3.15h-2.06a2.4,2.4,0,0,1-.82,1.81,4.46,4.46,0,0,1-2.5.51h-.93a3.65,3.65,0,0,1-2.67-.71,4.15,4.15,0,0,1-.67-2.78c0-.3,0-.53,0-.7s0-.31,0-.45h9.65v-2c0-2-.4-3.35-1.2-4.13S171.27,99.45,169.26,99.45Zm3.36,5.58H165v-.52a3.7,3.7,0,0,1,.66-2.56,3.79,3.79,0,0,1,2.65-.68h.93a3.86,3.86,0,0,1,2.68.68,3.64,3.64,0,0,1,.68,2.56Z"/><path class="cls-2" d="M197.56,102.61l-6-.5a2.61,2.61,0,0,1-1.9-.73,3.81,3.81,0,0,1-.49-2.25,3.48,3.48,0,0,1,.76-2.65c.5-.44,1.72-.66,3.68-.66a29,29,0,0,1,3.84.16,2.52,2.52,0,0,1,1.41.55,1.61,1.61,0,0,1,.39.82,8.12,8.12,0,0,1,.12,1.6v.47h2.12c0-.1,0-.21,0-.35v-.56a7.4,7.4,0,0,0-.26-2.11,2.63,2.63,0,0,0-.81-1.31,4.64,4.64,0,0,0-2-1,20.35,20.35,0,0,0-4.11-.28h-.68a21.3,21.3,0,0,0-3.65.21,3.39,3.39,0,0,0-1.6.72,3.8,3.8,0,0,0-1.07,1.67,8.8,8.8,0,0,0-.33,2.67,5.52,5.52,0,0,0,1,3.73,5.36,5.36,0,0,0,3.64,1.31l5.85.46a2.32,2.32,0,0,1,1.69.65,5.12,5.12,0,0,1,.42,2.65,10.21,10.21,0,0,1-.11,1.66,1.77,1.77,0,0,1-.36.87,2.58,2.58,0,0,1-1.32.68,11.69,11.69,0,0,1-2.52.21c-2,0-3.3,0-3.93-.11a4,4,0,0,1-1.42-.36,1.88,1.88,0,0,1-.84-1.14,8.8,8.8,0,0,1-.26-2.49v-.36h-2.11v.93a8.62,8.62,0,0,0,.34,2.65,3.5,3.5,0,0,0,1,1.66A4.11,4.11,0,0,0,190,113a17.61,17.61,0,0,0,3.72.27h.94a18.85,18.85,0,0,0,4.25-.32,3.5,3.5,0,0,0,2.66-2.65,12.12,12.12,0,0,0,.24-2.8,5.56,5.56,0,0,0-.94-3.64A4.79,4.79,0,0,0,197.56,102.61Z"/><path class="cls-2" d="M207.83,102a3.72,3.72,0,0,1,2.68-.69h.93a4.09,4.09,0,0,1,2.62.61,3.19,3.19,0,0,1,.74,2.25l2,0a4.62,4.62,0,0,0-1.31-3.57,6.17,6.17,0,0,0-4.1-1.09h-.93c-2,0-3.39.39-4.18,1.17s-1.2,2.16-1.2,4.13v3.19c0,2,.4,3.33,1.2,4.12s2.2,1.17,4.21,1.17h.93a6.12,6.12,0,0,0,4.14-1.13,4.89,4.89,0,0,0,1.24-3.75v-.26h-2v.23a3.31,3.31,0,0,1-.7,2.44,3.88,3.88,0,0,1-2.66.67h-.93a3.69,3.69,0,0,1-2.67-.69c-.43-.46-.64-1.54-.64-3.25V105.2Q207.2,102.65,207.83,102Z"/><path class="cls-2" d="M230.12,100.2a3.94,3.94,0,0,0-1.65-.57,21.53,21.53,0,0,0-3.23-.18,7.4,7.4,0,0,0-3.85.73,2.73,2.73,0,0,0-1.11,2.46v.3h2a1.66,1.66,0,0,1,.64-1.46,5.18,5.18,0,0,1,2.47-.39,6.39,6.39,0,0,1,3.2.49c.43.32.64,1,.64,2.13V106a2.6,2.6,0,0,0-1.45-1,9.86,9.86,0,0,0-2.78-.3,15.56,15.56,0,0,0-2.7.17,3,3,0,0,0-1.42.58,2.69,2.69,0,0,0-.82,1.29,7.58,7.58,0,0,0-.25,2.21c0,1.64.36,2.75,1.07,3.35s2.12.9,4.22.9a8.11,8.11,0,0,0,2.77-.38,2.61,2.61,0,0,0,1.46-1.21l.08,1.41h1.81v-9.39a7.74,7.74,0,0,0-.24-2.32A2.52,2.52,0,0,0,230.12,100.2Zm-.92,9.43a1.41,1.41,0,0,1-1,1.3,7.22,7.22,0,0,1-2.87.45,5.07,5.07,0,0,1-2.79-.53,2.55,2.55,0,0,1-.69-2.11,2.24,2.24,0,0,1,.66-1.88,4.76,4.76,0,0,1,2.6-.49,7.93,7.93,0,0,1,3.11.45,1.46,1.46,0,0,1,1,1.4Z"/><rect class="cls-2" x="235.18" y="94.07" width="1.98" height="18.98"/><path class="cls-2" d="M251,100.2a3.84,3.84,0,0,0-1.64-.57,21.77,21.77,0,0,0-3.24-.18,7.33,7.33,0,0,0-3.84.73,2.71,2.71,0,0,0-1.12,2.46v.3h2a1.66,1.66,0,0,1,.64-1.46,5.15,5.15,0,0,1,2.47-.39,6.42,6.42,0,0,1,3.2.49,2.64,2.64,0,0,1,.64,2.13V106a2.67,2.67,0,0,0-1.45-1,9.89,9.89,0,0,0-2.79-.3,15.35,15.35,0,0,0-2.69.17,3,3,0,0,0-1.42.58,2.63,2.63,0,0,0-.83,1.29,8,8,0,0,0-.24,2.21c0,1.64.35,2.75,1.07,3.35s2.12.9,4.22.9a8.15,8.15,0,0,0,2.77-.38,2.64,2.64,0,0,0,1.46-1.21l.07,1.41h1.82v-9.39a7.66,7.66,0,0,0-.25-2.32A2.52,2.52,0,0,0,251,100.2Zm-.91,9.43a1.42,1.42,0,0,1-1,1.3,7.19,7.19,0,0,1-2.87.45,5,5,0,0,1-2.78-.53,2.55,2.55,0,0,1-.7-2.11,2.24,2.24,0,0,1,.66-1.88,4.82,4.82,0,0,1,2.61-.49,7.87,7.87,0,0,1,3.1.45,1.47,1.47,0,0,1,1,1.4Z"/><path class="cls-2" d="M262.22,99.45a5.89,5.89,0,0,0-2.64.49,3.57,3.57,0,0,0-1.54,1.6V94.07h-2v19H258V111a3.27,3.27,0,0,0,1.5,1.7,5.94,5.94,0,0,0,2.76.54c1.91,0,3.26-.4,4-1.19s1.18-2.15,1.18-4.1v-3.19c0-2-.39-3.32-1.18-4.11S264.13,99.45,262.22,99.45Zm3.16,8c0,1.69-.22,2.77-.65,3.24a3.51,3.51,0,0,1-2.59.7,4.33,4.33,0,0,1-3.13-1,4.08,4.08,0,0,1-1-3v-2.19a4.11,4.11,0,0,1,1-3,4.33,4.33,0,0,1,3.13-1,3.51,3.51,0,0,1,2.59.7c.43.47.65,1.55.65,3.25Z"/><rect class="cls-2" x="271.03" y="94.07" width="1.98" height="18.98"/><path class="cls-2" d="M282.89,99.45H282c-2,0-3.39.39-4.18,1.17s-1.2,2.16-1.2,4.13v3.19c0,2,.4,3.33,1.2,4.12s2.2,1.17,4.21,1.17h.93a6.43,6.43,0,0,0,3.95-1,4.13,4.13,0,0,0,1.4-3.15h-2.06a2.4,2.4,0,0,1-.82,1.81,4.46,4.46,0,0,1-2.5.51H282a3.65,3.65,0,0,1-2.67-.71,4.15,4.15,0,0,1-.67-2.78c0-.3,0-.53,0-.7s0-.31,0-.45h9.65v-2c0-2-.4-3.35-1.2-4.13S284.9,99.45,282.89,99.45Zm3.36,5.58h-7.6v-.52a3.7,3.7,0,0,1,.66-2.56,3.79,3.79,0,0,1,2.65-.68h.93a3.86,3.86,0,0,1,2.68.68,3.64,3.64,0,0,1,.68,2.56Z"/><path class="cls-2" d="M311.19,102.61l-6-.5a2.61,2.61,0,0,1-1.9-.73,3.81,3.81,0,0,1-.49-2.25,3.48,3.48,0,0,1,.76-2.65c.5-.44,1.72-.66,3.68-.66a29,29,0,0,1,3.84.16,2.52,2.52,0,0,1,1.41.55,1.61,1.61,0,0,1,.39.82A8.12,8.12,0,0,1,313,99v.47h2.12c0-.1,0-.21,0-.35v-.56a7.06,7.06,0,0,0-.26-2.11,2.63,2.63,0,0,0-.81-1.31,4.64,4.64,0,0,0-2-1,20.35,20.35,0,0,0-4.11-.28h-.68a21.08,21.08,0,0,0-3.64.21,3.39,3.39,0,0,0-1.61.72A3.8,3.8,0,0,0,301,96.44a8.8,8.8,0,0,0-.33,2.67,5.52,5.52,0,0,0,1,3.73,5.36,5.36,0,0,0,3.64,1.31l5.85.46a2.32,2.32,0,0,1,1.69.65,5.12,5.12,0,0,1,.42,2.65,9.19,9.19,0,0,1-.11,1.66,1.77,1.77,0,0,1-.36.87,2.58,2.58,0,0,1-1.32.68,11.65,11.65,0,0,1-2.51.21c-2,0-3.31,0-3.94-.11a4,4,0,0,1-1.42-.36,1.88,1.88,0,0,1-.84-1.14,8.8,8.8,0,0,1-.26-2.49v-.36h-2.11v.93a8.62,8.62,0,0,0,.34,2.65,3.5,3.5,0,0,0,1.05,1.66,4.11,4.11,0,0,0,1.81.93,17.61,17.61,0,0,0,3.72.27h.94a19,19,0,0,0,4.26-.32,3.5,3.5,0,0,0,2.65-2.65,12.12,12.12,0,0,0,.24-2.8,5.56,5.56,0,0,0-.94-3.64A4.79,4.79,0,0,0,311.19,102.61Z"/><path class="cls-2" d="M325.07,99.45h-.93c-2,0-3.39.39-4.18,1.17s-1.2,2.16-1.2,4.13v3.19c0,2,.4,3.33,1.2,4.12s2.2,1.17,4.21,1.17h.93c2,0,3.39-.39,4.19-1.17s1.19-2.15,1.19-4.12v-3.19c0-2-.4-3.35-1.2-4.13S327.08,99.45,325.07,99.45Zm3.36,8c0,1.69-.22,2.77-.65,3.24a3.77,3.77,0,0,1-2.71.7h-.93a3.69,3.69,0,0,1-2.67-.69c-.43-.46-.64-1.54-.64-3.25V105.2q0-2.55.63-3.24a3.72,3.72,0,0,1,2.68-.69h.93a3.74,3.74,0,0,1,2.71.7c.43.46.65,1.54.65,3.23Z"/><rect class="cls-2" x="334.06" y="94.07" width="1.98" height="18.98"/><path class="cls-2" d="M349.09,107.44a4.15,4.15,0,0,1-1,3,4.22,4.22,0,0,1-3.05,1,3.38,3.38,0,0,1-2.44-.66A4.2,4.2,0,0,1,342,108V99.63h-2v8.81c0,1.77.35,3,1.06,3.73a5.14,5.14,0,0,0,3.68,1.06,7,7,0,0,0,2.86-.49,3,3,0,0,0,1.55-1.51v1.82h1.92V99.63h-2Z"/><path class="cls-2" d="M362.44,108.72a3.26,3.26,0,0,1-.51,2.16,2.58,2.58,0,0,1-1.94.55,2.62,2.62,0,0,1-2-.57,3.26,3.26,0,0,1-.52-2.14v-7.4h6.58V99.63H357.5v-3h-2v3h-1.65v1.69h1.65v7.12a5.91,5.91,0,0,0,.89,3.75,4.1,4.1,0,0,0,3.21,1c2,0,3.27-.33,3.89-1s.94-1.93.94-3.81v-.12h-2Z"/><rect class="cls-2" x="368.08" y="94.07" width="1.98" height="2.24"/><rect class="cls-2" x="368.08" y="99.63" width="1.98" height="13.42"/><path class="cls-2" d="M380,99.45H379c-2,0-3.39.39-4.19,1.17s-1.19,2.16-1.19,4.13v3.19c0,2,.4,3.33,1.2,4.12s2.2,1.17,4.21,1.17H380c2,0,3.39-.39,4.19-1.17s1.19-2.15,1.19-4.12v-3.19c0-2-.4-3.35-1.2-4.13S382,99.45,380,99.45Zm3.35,8c0,1.69-.21,2.77-.65,3.24a3.72,3.72,0,0,1-2.7.7H379a3.69,3.69,0,0,1-2.67-.69c-.43-.46-.64-1.54-.64-3.25V105.2q0-2.55.63-3.24a3.7,3.7,0,0,1,2.68-.69H380a3.74,3.74,0,0,1,2.71.7c.43.46.64,1.54.64,3.23Z"/><path class="cls-2" d="M395.22,99.45a6.85,6.85,0,0,0-2.83.49,3.1,3.1,0,0,0-1.55,1.52V99.63h-1.9v13.42h2v-7.8a4.11,4.11,0,0,1,1-3,4.26,4.26,0,0,1,3.08-1,3.28,3.28,0,0,1,2.4.66,4.29,4.29,0,0,1,.62,2.77v8.37h2v-8.79c0-1.79-.35-3-1.06-3.75S397,99.45,395.22,99.45Z"/><path class="cls-2" d="M413.55,105.72a4.54,4.54,0,0,0-1.36-.3c-.64-.07-1.52-.13-2.64-.17l-.8,0a7,7,0,0,1-2.65-.37.88.88,0,0,1-.41-.48,3.51,3.51,0,0,1-.12-1.11,1.93,1.93,0,0,1,.62-1.71,6.08,6.08,0,0,1,2.83-.41,9.05,9.05,0,0,1,3.06.34,1.23,1.23,0,0,1,.77,1.23v.13h2a3,3,0,0,0-1.06-2.64,7.64,7.64,0,0,0-4.06-.75c-2.58,0-4.24.26-5,.79s-1.13,1.53-1.13,3a5.23,5.23,0,0,0,.32,2.09A2.42,2.42,0,0,0,405,106.5a10.18,10.18,0,0,0,3.21.37l2,.07a4.56,4.56,0,0,1,2.45.55,2.31,2.31,0,0,1,.49,1.75,2.22,2.22,0,0,1-.6,1.82c-.4.32-1.46.47-3.18.47a6.76,6.76,0,0,1-3.08-.46,1.83,1.83,0,0,1-.76-1.7v-.31h-2v.36a3.44,3.44,0,0,0,1.16,3c.77.55,2.34.82,4.72.82a24,24,0,0,0,2.73-.12,3.62,3.62,0,0,0,1.41-.4,3.36,3.36,0,0,0,1.33-1.35,5.29,5.29,0,0,0,.37-2.25,5.18,5.18,0,0,0-.38-2.22A2.48,2.48,0,0,0,413.55,105.72Z"/><path class="cls-3" d="M18,47.46a18.6,18.6,0,0,0,6.26,4.29,20.17,20.17,0,0,0,7.93,1.56H59.32a3.77,3.77,0,0,1,3,1.29,5.16,5.16,0,0,1,1.13,3.54,4.91,4.91,0,0,1-1.13,3.49,3.87,3.87,0,0,1-3,1.24H13.18v18h46.9a20.43,20.43,0,0,0,8-1.5,17.93,17.93,0,0,0,6.26-4.35,20,20,0,0,0,4.13-6.76,24.57,24.57,0,0,0,1.47-8.75A24.17,24.17,0,0,0,78.45,51a19.57,19.57,0,0,0-4.13-6.71,18.91,18.91,0,0,0-6.26-4.35,20.06,20.06,0,0,0-8-1.56H32.93A3.57,3.57,0,0,1,30,37.09a5.12,5.12,0,0,1-1.1-3.43A4.9,4.9,0,0,1,30,30.23,3.75,3.75,0,0,1,32.93,29H79.07V11.11H32.17a20.93,20.93,0,0,0-7.93,1.5A17.67,17.67,0,0,0,18,16.91a19.94,19.94,0,0,0-4.08,6.71,24.27,24.27,0,0,0-1.47,8.64,24,24,0,0,0,1.47,8.59A19.42,19.42,0,0,0,18,47.46Z"/><rect class="cls-4" x="88.09" y="11.11" width="16.61" height="69.79"/><path class="cls-5" d="M174.76,44.3A18.77,18.77,0,0,0,168.5,40a20.06,20.06,0,0,0-8-1.56H133.37a3.57,3.57,0,0,1-2.89-1.29,5.15,5.15,0,0,1-1.1-3.44,4.9,4.9,0,0,1,1.1-3.43A3.75,3.75,0,0,1,133.37,29h46.14V11.11h-46.9a20.74,20.74,0,0,0-7.93,1.51,17.64,17.64,0,0,0-6.26,4.29,20,20,0,0,0-4.08,6.71,24.29,24.29,0,0,0-1.47,8.65,24,24,0,0,0,1.47,8.59,19.47,19.47,0,0,0,4.08,6.6,18.46,18.46,0,0,0,6.26,4.29,19.82,19.82,0,0,0,7.93,1.56h27.15a3.77,3.77,0,0,1,3,1.29,5.16,5.16,0,0,1,1.13,3.54,5,5,0,0,1-1.13,3.49,3.87,3.87,0,0,1-3,1.24H113.62v18h46.9a20.43,20.43,0,0,0,8-1.5,17.93,17.93,0,0,0,6.26-4.35,20.07,20.07,0,0,0,4.13-6.77,24.65,24.65,0,0,0,1.47-8.75A24,24,0,0,0,178.89,51,19.47,19.47,0,0,0,174.76,44.3Z"/><path class="cls-6" d="M248.81,62.88H217.48a14.46,14.46,0,0,1-6-1.23,14.16,14.16,0,0,1-4.75-3.44,16.1,16.1,0,0,1-3.13-5.31A19.92,19.92,0,0,1,202.48,46a19.93,19.93,0,0,1,1.14-6.89,16.76,16.76,0,0,1,3.13-5.37,13.82,13.82,0,0,1,4.75-3.48,14.31,14.31,0,0,1,6-1.24h31.33V11.11H218.62a33.25,33.25,0,0,0-13.1,2.52,29.69,29.69,0,0,0-10.3,7.14,33.66,33.66,0,0,0-6.79,11A39.49,39.49,0,0,0,186,46a39.82,39.82,0,0,0,2.47,14.29,33,33,0,0,0,6.79,11,30.15,30.15,0,0,0,10.3,7.09,33.25,33.25,0,0,0,13.1,2.52l30.19,0Z"/><rect class="cls-7" x="450.92" y="37.22" width="4.75" height="16.61"/><path class="cls-8" d="M407.87,68.29a24.79,24.79,0,0,0,1.47-8.75A24.17,24.17,0,0,0,407.87,51a19.57,19.57,0,0,0-4.13-6.71,18.91,18.91,0,0,0-6.26-4.35,20.06,20.06,0,0,0-8-1.56H362.35a3.61,3.61,0,0,1-2.9-1.29,5.16,5.16,0,0,1-1.09-3.43,4.94,4.94,0,0,1,1.09-3.43,3.78,3.78,0,0,1,2.9-1.19h46.14V11.11h-46.9a20.74,20.74,0,0,0-7.93,1.51,17.64,17.64,0,0,0-6.26,4.29,20,20,0,0,0-4.08,6.71,24.52,24.52,0,0,0-1.48,8.65,24,24,0,0,0,1.48,8.59,19.47,19.47,0,0,0,4.08,6.6,18.46,18.46,0,0,0,6.26,4.29,19.82,19.82,0,0,0,7.93,1.56h27.15a3.74,3.74,0,0,1,2.94,1.29,5.12,5.12,0,0,1,1.14,3.54,4.91,4.91,0,0,1-1.14,3.49,3.83,3.83,0,0,1-2.94,1.24H342.6v18h46.9a20.8,20.8,0,0,0,8-1.5,18.06,18.06,0,0,0,6.26-4.35A20.07,20.07,0,0,0,407.87,68.29Z"/><path class="cls-9" d="M447.6,80.9h11.3a32.94,32.94,0,0,0,13-2.52,30.15,30.15,0,0,0,10.3-7.09,32.8,32.8,0,0,0,6.79-11A39.76,39.76,0,0,0,491.46,46,53.11,53.11,0,0,0,489,29.41a33.53,33.53,0,0,0-6.79-11,29.73,29.73,0,0,0-10.3-7.14,32.94,32.94,0,0,0-13-2.52H447.6a33.43,33.43,0,0,0-13.1,2.52,30,30,0,0,0-10.3,7.14,33.8,33.8,0,0,0-6.79,11A53.7,53.7,0,0,0,414.94,46a39.76,39.76,0,0,0,2.47,14.28,32.8,32.8,0,0,0,6.79,11,30.15,30.15,0,0,0,10.3,7.09A33.25,33.25,0,0,0,447.6,80.9ZM431.46,46a36.2,36.2,0,0,1,1.14-9.26,16.76,16.76,0,0,1,3.13-5.37,13.82,13.82,0,0,1,4.75-3.48,14.31,14.31,0,0,1,6-1.24H460a14.35,14.35,0,0,1,6,1.24,13.69,13.69,0,0,1,4.74,3.48,16.12,16.12,0,0,1,3.09,5.37A37.53,37.53,0,0,1,474.94,46a20.6,20.6,0,0,1-1.09,6.88,15.38,15.38,0,0,1-3.09,5.32A14.14,14.14,0,0,1,466,61.63a14.35,14.35,0,0,1-6,1.24H446.46a14.73,14.73,0,0,1-6.07-1.24,14.08,14.08,0,0,1-4.75-3.43,15.38,15.38,0,0,1-3.09-5.32A20.6,20.6,0,0,1,431.46,46Z"/><rect class="cls-2" x="13.04" y="103.62" width="71.2" height="2.47"/><rect class="cls-2" x="428.38" y="103.62" width="71.2" height="2.47"/><path class="cls-10" d="M469.63,73.87c-.17-2.38-1.89-4.06-4.15-3.55-1.53.34-2.24-.3-3-1.24a4.41,4.41,0,0,0-4.64-.22,1.32,1.32,0,0,1-1.68-.09,4.77,4.77,0,0,0-4.62-.88c-1.22.37-1.22-.27-1.22-1.1,0-2,0-4,0-5.92a4.56,4.56,0,0,0-4.43-4.63c-1.92,0-4.78,2.06-4.42,4.65a44.55,44.55,0,0,1,0,6.33c.21,5.27.24,10.54,0,15.81v4.15l-4-3.29c-2.23-1.79-4.5-3.54-7.37-4.19s-4.77.9-4.84,3.72A4.42,4.42,0,0,0,426.91,87q6.78,5.73,13.54,11.49a5.63,5.63,0,0,0,3.79,1.23c6.61,0,13.22,0,19.83,0,3.35,0,5.26-1.78,5.77-5.11.58-3.72.23-7.47.5-11.2Q470,78.6,469.63,73.87Zm-2,19.95c-.34,2.65-1.6,3.89-4.3,3.91-6.27,0-12.55,0-18.83,0a4.15,4.15,0,0,1-2.82-1L428.63,85.64a2.48,2.48,0,0,1-.7-3.45c.82-1.3,2-.49,2.93-.1,3.25,1.38,5.71,3.92,8.47,6,.7.54,1.38,1.11,2.07,1.67.48.39,1,.82,1.64.54s.71-1,.73-1.58c0-1.7,0-3.41,0-5.11a88.64,88.64,0,0,1,.07-15.37l-.16-.58a39.8,39.8,0,0,1,0-7.87c.66-1.06,1.47-1.85,2.84-1.36s1.5,1.58,1.47,2.83c-.05,2.52,0,5.05,0,7.57,0,1.36.07,2.72.12,4.09,0,.91-.25,2.24,1.08,2.24s.86-1.31.9-2.12c.14-2.6.9-3.46,3-3.41A2.22,2.22,0,0,1,455.59,72c0,.27,0,.55,0,.82.1,1-.21,2.41,1.17,2.4s.94-1.44.95-2.32c0-1.65.78-2.71,2.39-2.7,1.46,0,2.07,1.08,2.06,2.53,0,1.22.1,2.45.17,3.67,0,.51.15,1,.78,1a.89.89,0,0,0,1-.84c.12-.94.15-1.89.2-2.84s.54-1.66,1.65-1.63,1.44.58,1.52,1.55c.3,3.39.93,6.75.57,10.17A74.25,74.25,0,0,1,467.67,93.82ZM443.88,68.24"/></svg>