<svg xmlns="http://www.w3.org/2000/svg" viewBox="0 0 470.59 442.92"><defs><style>.cls-1{fill:#f5f5f5;}.cls-2{fill:#e0e0e0;}.cls-3{fill:#f0f0f0;}.cls-4{fill:#fafafa;}.cls-24,.cls-25,.cls-5{fill:#fff;}.cls-6{fill:#ebebeb;}.cls-12,.cls-14,.cls-7,.cls-8{fill:none;}.cls-7,.cls-8{stroke:#27debf;stroke-width:0.88px;}.cls-12,.cls-7{stroke-miterlimit:10;}.cls-14,.cls-8{stroke-linecap:round;stroke-linejoin:round;}.cls-9{fill:#263238;}.cls-10{fill:#37474f;}.cls-11{fill:#455a64;}.cls-12,.cls-14{stroke:#fafafa;stroke-width:0.74px;}.cls-13{opacity:0.2;}.cls-15{opacity:0.1;}.cls-16{fill:#27debf;}.cls-17{opacity:0.5;}.cls-18{opacity:0.23;}.cls-19{opacity:0.38;}.cls-20{opacity:0.4;}.cls-21{opacity:0.3;}.cls-22{opacity:0.45;}.cls-23,.cls-24{opacity:0.7;}.cls-25{opacity:0.65;}.cls-26{fill:#ffb9b9;}.cls-27{fill:#ffa8a7;}.cls-28{fill:#f28f8f;}</style></defs><g id="Floor"><ellipse id="Floor-2" data-name="Floor" class="cls-1" cx="235.29" cy="307.07" rx="235.29" ry="135.85"/></g><g id="Shadow"><ellipse id="Shadow-2" data-name="Shadow" class="cls-2" cx="390.44" cy="335.15" rx="66.75" ry="38.54"/><polygon id="Shadow-3" data-name="Shadow" class="cls-2" points="221.5 355.94 146.21 312.45 232.27 262.76 307.58 306.24 221.5 355.94"/><polygon id="Shadow-4" data-name="Shadow" class="cls-2" points="16.46 342.49 113.58 398.56 195.04 351.54 97.93 295.47 16.46 342.49"/></g><g id="Shelf"><g id="Shelf-2" data-name="Shelf"><g id="Shelf-3" data-name="Shelf"><path class="cls-3" d="M178.52,113.63v-5.52h0a1.87,1.87,0,0,0-1.1-1.47L144.09,87.52a5.7,5.7,0,0,0-5.12,0l-95.79,55a1.87,1.87,0,0,0-1.1,1.47h0v5.52h0a1.86,1.86,0,0,0,1.1,1.47L76.5,170.07a5.7,5.7,0,0,0,5.12,0l95.79-55a1.86,1.86,0,0,0,1.1-1.47Z" transform="translate(-18.45 -34.69)"/><path class="cls-4" d="M43.18,145.43,76.5,164.55a5.64,5.64,0,0,0,5.12,0l95.79-55c1.41-.81,1.41-2.12,0-2.94L144.09,87.52a5.7,5.7,0,0,0-5.12,0l-95.79,55C41.77,143.31,41.77,144.62,43.18,145.43Z" transform="translate(-18.45 -34.69)"/><path class="cls-2" d="M79.06,165.17v5.51a5.35,5.35,0,0,1-2.56-.61L43.18,151a1.86,1.86,0,0,1-1.1-1.47h0V144h0a1.43,1.43,0,0,1,.21-.63c-.39.71-.1,1.53.89,2.1L76.5,164.56A5.21,5.21,0,0,0,79.06,165.17Z" transform="translate(-18.45 -34.69)"/></g><g id="Book"><polygon class="cls-2" points="78.51 83.84 106.74 99.94 153.38 73.17 125.15 57.08 78.51 83.84"/><path class="cls-5" d="M125.51,133.4,98.28,117.77a11.27,11.27,0,0,0-.15-7.06l27.06,15.46S125.71,127.88,125.51,133.4Z" transform="translate(-18.45 -34.69)"/><path class="cls-6" d="M123.8,124a5.75,5.75,0,0,1,2.62,4.5v5.26c0,1.66-1.18,2.33-2.62,1.51L97,119.83v-1.3l26.48,15.1c.87.5,1.57.09,1.57-.9l0-4.88a3.44,3.44,0,0,0-1.57-2.7L97,110v-1.48Z" transform="translate(-18.45 -34.69)"/><path class="cls-4" d="M97,108.57,143.6,81.8l26.83,15.4a5.74,5.74,0,0,1,2.62,4.51V107a1.8,1.8,0,0,1-.77,1.68l-46.63,26.77a1.84,1.84,0,0,0,.76-1.68v-5.27a5.71,5.71,0,0,0-2.62-4.5Z" transform="translate(-18.45 -34.69)"/><path class="cls-3" d="M125.65,125.91a5.2,5.2,0,0,1,.77,2.56v5.27a1.84,1.84,0,0,1-.76,1.68l46.63-26.77a1.8,1.8,0,0,0,.77-1.68v-5.26a5.2,5.2,0,0,0-.77-2.56Z" transform="translate(-18.45 -34.69)"/></g><g id="Book-2" data-name="Book"><polygon class="cls-6" points="49.81 43.79 49.55 47.35 81.06 64.26 81.77 62.18 49.81 43.79"/><polygon class="cls-5" points="81.36 63.01 50.83 45.39 45.52 48.45 76.65 66.66 81.36 63.01"/><path class="cls-2" d="M89.36,99.46l-3,35.38a2.5,2.5,0,0,0,1.13,2l17.71,10.25a2.1,2.1,0,0,0,.92.26l-11-44.81a2.28,2.28,0,0,1-.92-.25l-1.27-.74Z" transform="translate(-18.45 -34.69)"/><path class="cls-3" d="M96.44,102.25l3.16-2.71,2.31-2c.24-.38.52-.66.37-1l10.86,44.48,0,0c.15.31.19,1-.24,1.26l-5.47,4.68a2.35,2.35,0,0,1-1.35.26l-11-44.81A2.41,2.41,0,0,0,96.44,102.25Z" transform="translate(-18.45 -34.69)"/><path class="cls-4" d="M101.92,96.25c.62.36.47.76,0,1.3l-5.48,4.69a2.44,2.44,0,0,1-2.26,0l-4.82-2.78c-.63-.36-.74-.88-.25-1.16a2.28,2.28,0,0,1,2,.14l3.8,2.2a.83.83,0,0,0,.75,0l4-3.48c.21-.12.21-.31,0-.43L68.26,78.48l1.5-.87Z" transform="translate(-18.45 -34.69)"/></g><g id="Book-3" data-name="Book"><polygon class="cls-6" points="40.71 45.5 70.74 62.84 70.74 119.98 40.71 102.63 40.71 45.5"/><path class="cls-5" d="M88.22,98.48,59.16,81.8a12.28,12.28,0,0,1-6.65,3.64l28.82,16.61S83.19,101.61,88.22,98.48Z" transform="translate(-18.45 -34.69)"/><path class="cls-4" d="M78.54,102a6.23,6.23,0,0,0,5.58,0L89,99.14c1.54-.89,1.54-2.32,0-3.21L60.37,79.49l-1.21.7L87.33,96.46a1,1,0,0,1,0,1.92L82.78,101a3.73,3.73,0,0,1-3.35,0L51.27,84.72l-1.38.79Z" transform="translate(-18.45 -34.69)"/><path class="cls-6" d="M49.9,85.51v57.13l28.64,16.44a6.23,6.23,0,0,0,5.58,0l4.9-2.81a1.94,1.94,0,0,0,1.15-1.61V97.53A1.92,1.92,0,0,1,89,99.13L84.12,102a6.23,6.23,0,0,1-5.58,0Z" transform="translate(-18.45 -34.69)"/><path class="cls-3" d="M81.33,102.61a5.75,5.75,0,0,0,2.79-.66L89,99.13a1.92,1.92,0,0,0,1.15-1.6v57.13A1.94,1.94,0,0,1,89,156.27l-4.9,2.81a5.75,5.75,0,0,1-2.79.66Z" transform="translate(-18.45 -34.69)"/></g></g></g><g id="Plants"><g id="Plants-2" data-name="Plants"><path class="cls-7" d="M323,310c-.68-12-6-36,1-58.12,3.56-11.25,11.72-23.17,23.87-26.53,4.3-1.19,9.62-1,11.73,3.87a7.79,7.79,0,0,1,.62,2.6c.26,3.73-1.43,7-3.31,10.06-4.31,7-9.78,13.14-14.14,20.06a84.81,84.81,0,0,0-6,11.49" transform="translate(-18.45 -34.69)"/><path class="cls-7" d="M322.72,317.79c0,1.44.38,3.24.06,4.61a2,2,0,0,0,0,1.25c.18.38.73.61,1,.32a14.67,14.67,0,0,0,.6-2.15,24.82,24.82,0,0,1,1.15-2.45q1.2-2.42,2.54-4.77a84.9,84.9,0,0,1,21.65-24.78C356.07,285,363,281.06,369.21,276c1.81-1.48,3.62-3.14,4.4-5.35,1.16-3.3-.38-7.15-3.12-9.32a14.22,14.22,0,0,0-9.92-2.6,31.16,31.16,0,0,0-11.52,3.69c-7.52,4.1-12.69,10.44-16.82,17.63a74.9,74.9,0,0,0-9.51,31.51Z" transform="translate(-18.45 -34.69)"/><path class="cls-8" d="M365.65,264.75c-14.23,4.08-35.33,20.42-42.93,50.76" transform="translate(-18.45 -34.69)"/><path class="cls-8" d="M351,231.79c-7.68,6.12-26,25.48-28.34,56.79" transform="translate(-18.45 -34.69)"/></g></g><g id="Bookshelf"><g id="Bookshelf-2" data-name="Bookshelf"><path class="cls-9" d="M319.9,165.09,264.29,133a3,3,0,0,0-3-.29l-4,2.31a3,3,0,0,0-1.27,2.77V290a9.45,9.45,0,0,0,4.28,7.4l55.6,32.05a3,3,0,0,0,3,.3l4-2.32a3,3,0,0,0,1.25-2.76V172.49A9.44,9.44,0,0,0,319.9,165.09Z" transform="translate(-18.45 -34.69)"/><path class="cls-9" d="M268,292.61l-4,2.31v12.66a2.36,2.36,0,0,0,1.07,1.85l1.87,1.08a2.37,2.37,0,0,0,2.14,0l1.87-1.08a3.8,3.8,0,0,0,1.47-1.79l3.61-10.4Z" transform="translate(-18.45 -34.69)"/><path class="cls-10" d="M264,307.58a2.36,2.36,0,0,0,1.07,1.85l1.87,1.08a1,1,0,0,0,1.47-.55L272,299.55l-8-4.63Z" transform="translate(-18.45 -34.69)"/><path class="cls-9" d="M308.12,315.7l-4,2.32v12.65a2.37,2.37,0,0,0,1.06,1.86l1.88,1.08a2.35,2.35,0,0,0,2.13,0l1.88-1.08a3.8,3.8,0,0,0,1.47-1.79l3.6-10.41Z" transform="translate(-18.45 -34.69)"/><path class="cls-10" d="M304.12,330.67a2.37,2.37,0,0,0,1.06,1.86l1.88,1.08a1,1,0,0,0,1.47-.55l3.61-10.41-8-4.63Z" transform="translate(-18.45 -34.69)"/><path class="cls-10" d="M260.56,135.43l55.6,32a9.47,9.47,0,0,1,4.28,7.41V327.05a2.61,2.61,0,0,1-4.28,2.47l-55.6-32.06a9.44,9.44,0,0,1-4.27-7.4V137.89a2.6,2.6,0,0,1,4.27-2.46Z" transform="translate(-18.45 -34.69)"/><g id="Bottom"><polygon class="cls-11" points="161.37 308.79 221.51 343.51 305.71 294.9 301.7 292.59 241.56 257.86 161.37 304.16 161.37 308.79"/><polygon class="cls-9" points="221.51 343.51 221.51 338.88 305.71 290.27 305.71 294.9 221.51 343.51"/></g><path class="cls-12" d="M240,371.26c11.24-17,10.62-47.11,9.65-52.18,0,0,4.75,31.8,10.59,40.88" transform="translate(-18.45 -34.69)"/><path class="cls-12" d="M251.69,330.63c1.94,9.27,23.87,15.82,23.87,15.82" transform="translate(-18.45 -34.69)"/><path class="cls-12" d="M249.53,339.86a2.31,2.31,0,0,1,4.25.73s.35-4.5,2.89-3.23" transform="translate(-18.45 -34.69)"/><path class="cls-12" d="M248.66,346.45c1.13-2.42,5.29-3.75,7.12,2,0,0,.28-10.27,7.07-7.18" transform="translate(-18.45 -34.69)"/><path class="cls-12" d="M246.73,355.54c2.38-4.58,8.91-6.41,10.59-2.19,0-5.21,6-11.79,13.3-8.62" transform="translate(-18.45 -34.69)"/><path class="cls-12" d="M242.7,366.57c2.79-5.08,9.64-14.24,15.62-10.55" transform="translate(-18.45 -34.69)"/><polygon class="cls-9" points="297.69 243.97 297.7 248.6 221.51 292.59 161.37 257.86 161.37 253.23 237.55 209.25 297.69 243.97"/><polygon class="cls-11" points="297.69 243.97 221.51 287.96 161.37 253.23 237.55 209.25 297.69 243.97"/><polygon class="cls-9" points="297.69 193.05 297.7 197.67 221.51 241.66 161.37 206.94 161.37 202.31 237.55 158.32 297.69 193.05"/><polygon class="cls-11" points="297.69 193.05 221.51 237.03 161.37 202.31 237.55 158.32 297.69 193.05"/><g id="Side"><path class="cls-9" d="M239.7,211.33l-55.6-32.05a3,3,0,0,0-3-.3c-.72.41-3.28,1.9-4,2.31a3,3,0,0,0-1.26,2.77V336.23a9.45,9.45,0,0,0,4.28,7.4l55.6,32.06a3,3,0,0,0,3,.3c.72-.42,3.3-1.9,4-2.33A3,3,0,0,0,244,370.9V218.74A9.45,9.45,0,0,0,239.7,211.33Z" transform="translate(-18.45 -34.69)"/><polygon class="cls-13" points="221.51 200 225.53 197.68 225.53 183.78 221.5 186.1 221.51 200"/><polygon class="cls-13" points="301.72 153.7 305.73 151.39 305.73 137.49 301.7 139.81 301.72 153.7"/><path class="cls-9" d="M187.84,338.85l-4,2.31v12.66a2.36,2.36,0,0,0,1.07,1.85l1.87,1.08a2.37,2.37,0,0,0,2.14,0l1.87-1.08a3.82,3.82,0,0,0,1.47-1.78l3.61-10.41Z" transform="translate(-18.45 -34.69)"/><path class="cls-10" d="M183.83,353.82a2.36,2.36,0,0,0,1.07,1.85l1.87,1.08a1,1,0,0,0,1.47-.55l3.61-10.41-8-4.63Z" transform="translate(-18.45 -34.69)"/><path class="cls-9" d="M227.93,362l-4,2.31v12.66a2.35,2.35,0,0,0,1.06,1.85l1.88,1.08a2.35,2.35,0,0,0,2.13,0l1.88-1.08a3.88,3.88,0,0,0,1.47-1.78l3.6-10.41Z" transform="translate(-18.45 -34.69)"/><path class="cls-10" d="M223.93,376.92a2.35,2.35,0,0,0,1.06,1.85l1.88,1.08a1,1,0,0,0,1.47-.55l3.6-10.41-8-4.63Z" transform="translate(-18.45 -34.69)"/><path class="cls-10" d="M180.08,181.6l55.61,32.05a9.46,9.46,0,0,1,4.27,7.41V378.2s-3.09-1.83-4.27-2.51l-55.6-32.06a9.45,9.45,0,0,1-4.28-7.4V184.06a2.6,2.6,0,0,1,4.27-2.46Z" transform="translate(-18.45 -34.69)"/><path class="cls-13" d="M235.69,213.65,180.08,181.6a2.6,2.6,0,0,0-4.27,2.46v13.59l64.15,37V221.06A9.46,9.46,0,0,0,235.69,213.65Z" transform="translate(-18.45 -34.69)"/></g><polyline class="cls-14" points="249.58 172.21 293.68 146.75 293.69 193.05"/><polyline class="cls-14" points="285.67 181.47 293.68 146.75 277.65 174.53"/><line class="cls-14" x1="293.68" y1="146.75" x2="269.63" y2="169.9"/><path class="cls-14" d="M312.13,220.35c0-6.49-7.4-6.85-7.4-6.85a7.6,7.6,0,0,0-2.43-7.17c-2.39-2-4-.92-4.49-.08,0,0,.5-6-4.66-6.55,0,0,3.42-6.31,0-7.3" transform="translate(-18.45 -34.69)"/><path class="cls-14" d="M312.13,210.37c-.26-3.32-2.8-7.54-5.41-5.5,0,0,.69-7.25-4.48-6.3,0,0,2.43-6.72-2.66-5.06,0,0,3.67-4.63.83-5.3" transform="translate(-18.45 -34.69)"/><g id="Top"><path class="cls-10" d="M333.67,165.24a3,3,0,0,0-1.76-2.47L272.3,128.35a9.47,9.47,0,0,0-8.55,0l-91.68,52.94a3,3,0,0,0-1.76,2.47v4.63a3,3,0,0,0,1.76,2.47l59.61,34.41a9.41,9.41,0,0,0,8.55,0l91.68-52.93a3,3,0,0,0,1.76-2.47Z" transform="translate(-18.45 -34.69)"/><path class="cls-11" d="M231.68,220.64l-59.61-34.41c-2.36-1.37-2.36-3.58,0-4.94l91.68-52.94a9.47,9.47,0,0,1,8.55,0l59.61,34.42c2.37,1.37,2.37,3.57,0,4.94l-91.68,52.93A9.41,9.41,0,0,1,231.68,220.64Z" transform="translate(-18.45 -34.69)"/></g><g id="Shadows"><polygon class="cls-15" points="301.7 144.44 273.64 179.16 225.53 206.94 225.52 188.42 301.7 144.44"/><polygon class="cls-15" points="297.7 197.67 273.64 230.09 225.53 257.87 225.53 239.34 297.7 197.67"/><polygon class="cls-15" points="297.7 248.6 273.64 281.01 225.53 308.8 225.53 290.27 297.7 248.6"/></g></g></g><g id="Box"><g id="Box-2" data-name="Box"><polygon class="cls-16" points="187.34 349.75 113.57 392.34 30.51 344.28 104.27 301.69 187.34 349.75"/><polygon class="cls-17" points="187.34 349.75 113.57 392.34 30.51 344.28 104.27 301.69 187.34 349.75"/><polygon class="cls-16" points="104.27 243.96 104.27 301.69 30.51 344.28 30.51 286.55 104.27 243.96"/><polygon class="cls-18" points="104.27 243.96 104.27 301.69 30.51 344.28 30.51 286.55 104.27 243.96"/><polygon class="cls-16" points="113.57 334.61 113.57 392.34 30.51 344.28 30.51 286.55 113.57 334.61"/><polygon class="cls-19" points="113.57 334.61 113.57 392.34 30.51 344.28 30.51 286.55 113.57 334.61"/><polygon class="cls-16" points="187.34 292.02 187.34 349.75 104.27 301.69 104.27 243.96 187.34 292.02"/><polygon class="cls-20" points="187.34 292.02 187.34 349.75 104.27 301.69 104.27 243.96 187.34 292.02"/><polygon class="cls-16" points="187.34 349.75 187.34 292.02 113.57 334.61 113.57 392.34 187.34 349.75"/><polygon class="cls-18" points="187.34 349.75 187.34 292.02 113.57 334.61 113.57 392.34 187.34 349.75"/><polygon class="cls-16" points="104.27 243.96 104.38 212 187.23 260.13 187.34 292.02 104.27 243.96"/><polygon class="cls-13" points="104.27 243.96 104.38 212 187.23 260.13 187.34 292.02 104.27 243.96"/><polygon class="cls-16" points="113.57 334.61 120.49 306.65 193.58 264.45 187.34 292.02 113.57 334.61"/><polygon class="cls-21" points="113.57 334.61 120.49 306.65 193.58 264.45 187.34 292.02 113.57 334.61"/><polygon class="cls-16" points="30.51 286.55 21.71 257.55 95.47 214.97 104.27 243.96 30.51 286.55"/><polygon class="cls-15" points="30.51 286.55 21.71 257.55 95.47 214.97 104.27 243.96 30.51 286.55"/><polygon class="cls-16" points="30.51 286.55 13.16 262.58 96.23 310.64 113.57 334.61 30.51 286.55"/><polygon class="cls-22" points="30.51 286.55 13.16 262.58 96.23 310.64 113.57 334.61 30.51 286.55"/><g class="cls-23"><path class="cls-5" d="M153.74,409.86a.46.46,0,0,1-.46-.45V399.25a.47.47,0,0,1,.46-.46.46.46,0,0,1,.45.46v10.16A.45.45,0,0,1,153.74,409.86Z" transform="translate(-18.45 -34.69)"/><path class="cls-5" d="M152.41,402.77a.58.58,0,0,1-.18,0,.47.47,0,0,1-.24-.6l1.62-3.73,1.8,2.08a.46.46,0,0,1-.69.6l-.85-1-1,2.4A.47.47,0,0,1,152.41,402.77Z" transform="translate(-18.45 -34.69)"/><path class="cls-5" d="M157.93,407.47a.46.46,0,0,1-.45-.46V396.86a.45.45,0,1,1,.9,0V407A.46.46,0,0,1,157.93,407.47Z" transform="translate(-18.45 -34.69)"/><path class="cls-5" d="M156.6,400.38a.58.58,0,0,1-.18,0,.45.45,0,0,1-.23-.6L157.8,396l1.8,2.07a.46.46,0,0,1,0,.64.45.45,0,0,1-.64,0l-.85-1-1,2.4A.46.46,0,0,1,156.6,400.38Z" transform="translate(-18.45 -34.69)"/></g><g class="cls-23"><path class="cls-5" d="M141.65,416.75a.92.92,0,0,1-.49-.13,1.17,1.17,0,0,1-.55-1.08v-1.25a.46.46,0,0,1,.46-.45.45.45,0,0,1,.45.45v1.25c0,.18,0,.28.09.3s.14,0,.29-.08a2.65,2.65,0,0,0,.85-2.05v-5.2a.45.45,0,1,1,.9,0v5.2a3.44,3.44,0,0,1-1.29,2.83A1.41,1.41,0,0,1,141.65,416.75Z" transform="translate(-18.45 -34.69)"/><path class="cls-5" d="M136.88,412.56v-.78a12.87,12.87,0,0,1,5.79-10c1.64-.94,3.2-1.08,4.4-.38a4.33,4.33,0,0,1,1.86,4v.26Zm8.51-10.74a4.7,4.7,0,0,0-2.26.7,12,12,0,0,0-5.3,8.45L148,405.09a3.37,3.37,0,0,0-1.41-3A2.38,2.38,0,0,0,145.39,401.82Z" transform="translate(-18.45 -34.69)"/></g><polygon class="cls-24" points="13.16 262.58 96.23 310.64 113.57 334.61 95.3 311.49 13.16 262.58"/><polygon class="cls-24" points="187.34 292.02 113.57 334.61 113.57 392.34 114.95 335.77 187.34 292.02"/></g></g><g id="Moth"><g id="Moth-2" data-name="Moth"><path class="cls-2" d="M97.54,303.62c7.61-1.1,14.56-6,19-12.16a29,29,0,0,0,4.5-9.54,20.43,20.43,0,0,0,.46-9.88c-1.37-5.49-6.45-8.74-11.82-9.42a18,18,0,0,0-8.1.79,13.68,13.68,0,0,0-6.7,5A8.28,8.28,0,0,0,93,272.77a2.5,2.5,0,0,0,2.24,2.55,7.22,7.22,0,0,0,4.57-1.16,14.49,14.49,0,0,0,4.27-3.64,30.56,30.56,0,0,0,5.54-10.5,21.09,21.09,0,0,0,0-10,18.46,18.46,0,0,0-4.53-9.21,16.76,16.76,0,0,0-9.74-4.29,23.72,23.72,0,0,0-10.74,1,11.49,11.49,0,0,0-4.13,2.26c-.86.8-1.84,2.12-1.49,3.42s2.25,1.88,3.54,1.71a9.28,9.28,0,0,0,5-2.71,21.35,21.35,0,0,0,3.77-5,8.78,8.78,0,0,0,1.13-4.34c-.13-6.34-7.14-10.44-12.63-11.6a16.25,16.25,0,0,0-4.51-.3c-.51,0-.2.84.21.81A16.48,16.48,0,0,1,84,223.69a14.22,14.22,0,0,1,6.21,5.53,7.61,7.61,0,0,1-.24,7.74,20.53,20.53,0,0,1-3.62,4.62c-1.19,1.08-3,2.33-4.67,2.21a1.47,1.47,0,0,1-1.32-.83,2.13,2.13,0,0,1,.59-1.82A8.37,8.37,0,0,1,84.14,239a21,21,0,0,1,9.49-1.56,17,17,0,0,1,9.34,3,14.69,14.69,0,0,1,4.86,7.71,22.64,22.64,0,0,1,.88,9.5,24.35,24.35,0,0,1-3.63,9c-1.85,3.06-4.17,6-7.65,7.2-.86.31-2.66.76-3-.49s.64-2.79,1.27-3.76a12.72,12.72,0,0,1,5.82-4.91,16.07,16.07,0,0,1,7.29-1.1c4.71.35,9.49,2.81,11.13,7.49a17,17,0,0,1,.26,8.6,27.64,27.64,0,0,1-3.31,8.84A31.58,31.58,0,0,1,102,301.51c-1.48.64-3,1.18-4.55,1.68-.16.06-.09.46.09.43Z" transform="translate(-18.45 -34.69)"/><path class="cls-16" d="M65.75,216.8c-4-.29-9.51,2.86-7.55,5.16s7.16-1.42,7.16-1.42-.49,4.65,1.21,5.18,4-3.91,2.3-6.75a5.23,5.23,0,0,0,5-.64c2.42-1.78-.14-3.46-3.55-3.16,0,0,2.44-8-2.49-6.47C65.36,209.45,64.49,212.34,65.75,216.8Z" transform="translate(-18.45 -34.69)"/><path class="cls-25" d="M65.75,216.8c-4-.29-9.51,2.86-7.55,5.16s7.16-1.42,7.16-1.42-.49,4.65,1.21,5.18,4-3.91,2.3-6.75a5.23,5.23,0,0,0,5-.64c2.42-1.78-.14-3.46-3.55-3.16,0,0,2.44-8-2.49-6.47C65.36,209.45,64.49,212.34,65.75,216.8Z" transform="translate(-18.45 -34.69)"/><path class="cls-11" d="M69.47,218.5a8,8,0,0,0-.7-.61c-.35-.27-.72-.53-1.07-.79a9.12,9.12,0,0,0-1.07-.67,6.65,6.65,0,0,0-.66-.32,1.83,1.83,0,0,0-1-.16.5.5,0,0,0-.4.78,2.5,2.5,0,0,0,1,.66l.54.29c.37.22.7.47,1,.72s.7.49,1,.74a6.53,6.53,0,0,0,1.71,1,.19.19,0,0,0,.18,0C70.51,219.74,69.76,218.79,69.47,218.5Z" transform="translate(-18.45 -34.69)"/></g></g><g id="Character"><g id="Character-2" data-name="Character"><path class="cls-26" d="M388.28,106.79c-4.37,5.88-10.22,38.21-12.43,48.58-10.63-.31-24.85-.81-30.23-1.37-6-.63-18.81-1.86-25.1-1-15.61,2-15,12.26-14.62,14.94.41,3.06,2.6,4.46,11,2.55a28.92,28.92,0,0,1,5.72-.67c.81,0,2.52-.41,3.16.28,1,1-1.89,2.68-2.61,3.14-1.11.72-2.27,1.63-2.5,2.93a1.29,1.29,0,0,0,.41,1.33,1.68,1.68,0,0,0,1.27,0,45.08,45.08,0,0,0,11-4.19,25.52,25.52,0,0,1,4.11-2c2.17-.7,4.41-.29,6.59-.29,4.69,0,29.48,2.46,40.5,3.58,7.63.77,8.44-6.76,11.07-14.39C398.85,150.75,406.5,101,406.5,101,398.78,99.88,393.48,99.81,388.28,106.79Z" transform="translate(-18.45 -34.69)"/><path class="cls-10" d="M406.62,100.22c-3.69-.68-12-1.71-16.52,3.34s-5.59,10.35-7.58,18S377,142.91,377,142.91s5.83,8.37,24.08,6Z" transform="translate(-18.45 -34.69)"/><polygon class="cls-27" points="432 328.95 419.17 328.96 415.48 301.11 431.67 300.47 432 328.95"/><path class="cls-27" d="M407.85,349.73c-2.18,3.79-9.19,3.48-15,2.14l-.67-27.38,17.15-.68Z" transform="translate(-18.45 -34.69)"/><path class="cls-16" d="M449.58,187.66c.46,11.85-1.11,81.92-1.11,81.92.43,3.4,3.95,9.33,4.68,21.6C454.22,309,450.59,347,450.59,347s-7.35,3.84-15.27.9c0,0-8.06-55-11-72.58-2.54-15.3-5.8-56.34-5.8-56.34l-6.33,52.6a87.29,87.29,0,0,1,1.43,18.89c-.26,8.18-4.92,47.9-4.92,47.9a28.49,28.49,0,0,1-16.42.39s-3.82-61.64-4.26-69.11c-.5-8.52-.16-83.73-.16-83.73Z" transform="translate(-18.45 -34.69)"/><path class="cls-13" d="M418.54,219s-11.21-3.18-18.85-10c0,0,3.58,6.11,13.72,11.53l-.58,45.91Z" transform="translate(-18.45 -34.69)"/><path class="cls-9" d="M423,386.87c-.41.42-.17,3.19.33,3.91s3.56,3.16,8.87,3.34c5.07.16,9.55-.7,12.44-2.7s4.25-4.13,4.42-7-.26-5.66,1-7.93c1.19-2.09,3.12-4.48,3.51-5.61.87-2.45-.19-5.86-.19-5.86Z" transform="translate(-18.45 -34.69)"/><path class="cls-11" d="M435.8,361.2a11.11,11.11,0,0,1-.46,3.23,33.1,33.1,0,0,1-4.83,9.51c-1.46,1.87-3.3,3.44-4.85,5.25a10.39,10.39,0,0,0-2.88,6.33c-.06,4,4.3,5.15,7.63,5.61a24.28,24.28,0,0,0,10.74-1,9.87,9.87,0,0,0,6.94-8.18c.14-1.11,0-2.23.12-3.34a15.56,15.56,0,0,1,2.81-7.06,21.55,21.55,0,0,0,2.22-3.86c.93-2.5,0-5.23-.76-7.64-.65-2.09-1.39-4.46-2.12-4.23,0,1.11,0,1.21-.71,2-1,1-.95,2.39-2,3.26a14.16,14.16,0,0,0,.62-2.84,1.63,1.63,0,0,0-.27-1.12,3,3,0,0,0-1.24-.6,24.26,24.26,0,0,0-4.85-.91,14.52,14.52,0,0,0-4.7.15,2.09,2.09,0,0,0-1.16.73,2.42,2.42,0,0,0-.37,1.37C435.68,358.51,435.79,360.14,435.8,361.2Z" transform="translate(-18.45 -34.69)"/><path class="cls-1" d="M432,371.73c1.44-1.16,4.74-1.31,6.56-1.18a10.9,10.9,0,0,1,5.21,1.6,1.17,1.17,0,0,0,1.51-.18h0a1.11,1.11,0,0,0-.18-1.68,11.19,11.19,0,0,0-5.87-1.92c-4.46-.13-5.73.68-5.73.68S431.51,370.43,432,371.73Z" transform="translate(-18.45 -34.69)"/><path class="cls-1" d="M428.76,375.93c1.81-1.17,5.46-1.16,7.27-1a10.37,10.37,0,0,1,5.08,1.71,1.16,1.16,0,0,0,1.5-.18h0a1.1,1.1,0,0,0-.17-1.68,11.57,11.57,0,0,0-6-2.08c-4.47-.14-5.59.81-5.59.81A3.68,3.68,0,0,0,428.76,375.93Z" transform="translate(-18.45 -34.69)"/><path class="cls-1" d="M440.83,364.05a11.06,11.06,0,0,0-5.58.68c-.76.47-1.23,1.73-.72,2a10.31,10.31,0,0,1,4.94-.88,14.6,14.6,0,0,1,4.86,1.14c.39.15.85.37,1.25.57a1.06,1.06,0,0,0,1.45-.51h0a1,1,0,0,0-.44-1.26A14.12,14.12,0,0,0,440.83,364.05Z" transform="translate(-18.45 -34.69)"/><path class="cls-9" d="M363.53,366.81a4.82,4.82,0,0,0,0,3.56c.44,1.07,5.74,4.39,13.1,4.25A30.68,30.68,0,0,0,392.09,370c2.89-1.72,5.82-1.93,9.46-2s8.5-1.62,9.38-3.28.1-4.63.1-4.63Z" transform="translate(-18.45 -34.69)"/><path class="cls-11" d="M394.23,345.31l-.57-.15a2.47,2.47,0,0,0-1-.09,1.8,1.8,0,0,0-.93.56,18.17,18.17,0,0,0-2,2.86c-1.65,2.43-5,4.36-8.6,6.09-2.46,1.17-4.85,2.06-7.38,3.05s-6,1.55-8,2.79c-3,1.81-3.57,6.66-.39,8.74,2.76,1.8,10.12,3.95,18,2.11,4.31-1,9.25-5.32,14.85-5.49,3.57-.11,10.33-.79,12.74-3.38.91-1.15,0-5-.81-8.32-.84-3.62-.46-9-2.08-9l-.1,1.81c-.15.54-1.42,1.07-1.82,1.49l-1.44,1.52a7.17,7.17,0,0,1-2.12,1.72c-1.43.64-3.1.26-4.63-.14-.06,0,.77-2.78.86-3.05a1.2,1.2,0,0,0,.08-.67,1,1,0,0,0-.43-.53A11.34,11.34,0,0,0,394.23,345.31Z" transform="translate(-18.45 -34.69)"/><path class="cls-1" d="M384.55,352.8a3.31,3.31,0,0,1,2.71-1.63c1.63-.22,4.42,1.1,6.13,2.65a1.33,1.33,0,0,1-.3,2.18h0a1.31,1.31,0,0,1-1.5-.24A10.16,10.16,0,0,0,384.55,352.8Z" transform="translate(-18.45 -34.69)"/><path class="cls-1" d="M379.41,355.37a3.79,3.79,0,0,1,3.18-1.45s4.22.32,6.71,2.88a1.29,1.29,0,0,1-.28,2.1h0a1.28,1.28,0,0,1-1.45-.23A10.14,10.14,0,0,0,379.41,355.37Z" transform="translate(-18.45 -34.69)"/><path class="cls-1" d="M373.76,357.63a4.25,4.25,0,0,1,3.3-1.29,11.43,11.43,0,0,1,6.42,2.89,1.3,1.3,0,0,1-.28,2.11h0a1.26,1.26,0,0,1-1.45-.24A9.73,9.73,0,0,0,373.76,357.63Z" transform="translate(-18.45 -34.69)"/><path class="cls-11" d="M428,100.44c4.72.54,10.3.83,14.81,1.42,5.81.76,10.34,6.77,11.76,16.07,1.56,10.24-5,39.6-5,39.6l2.09,34.62c-8.51,6.27-44.75,9.56-62.81-3.48,0,0,.42-58.92,1.83-68,1.94-12.45,5-20.18,19-21.07Z" transform="translate(-18.45 -34.69)"/><path class="cls-26" d="M460.27,175.44c-1.53,2.56-3.07,5.12-4.65,7.65-.58.94-1.17,1.87-1.78,2.79a6.61,6.61,0,0,1-1.15,1.21c-.76.52-2.34.19-3.26.22q-6.78.23-13.52,1a2.57,2.57,0,0,0-2,.86,1.76,1.76,0,0,0,.64,2.24,5.07,5.07,0,0,0,2.43.72l3.9.46a3,3,0,0,1,1.56.5c1.42,1.15-1.29,2.53-2.1,3.09a29.56,29.56,0,0,1-5.19,2.88c-8.13,3.42-9.12,5.9-7.62,8.72,1.3,2.45,6.92,11.36,21.2,3.69,5.75-3.09,14.5-12.85,18.49-17.57,5.74-6.81,15.45-22,15.45-22,5.52-7.58,6.23-10.69,6.36-13.84s-17-27.38-22.82-35.89-8.59-18.86-23.4-20.28c0,0-5.64,17.88,3.7,29.45l21.57,30.09S462.37,171.93,460.27,175.44Z" transform="translate(-18.45 -34.69)"/><path class="cls-10" d="M475.92,133.71c-2.77-4-5.66-8.12-8.45-12.2-11.75-17.15-10.76-20.29-27.7-20.53-1.5,2.3-2.39,12.2-.13,22.14,1.89,8.35,9,14.24,9,14.24l8.48,11.49s5.19-.16,11.41-4.72A19,19,0,0,0,475.92,133.71Z" transform="translate(-18.45 -34.69)"/><path class="cls-9" d="M439.17,55.37a8.45,8.45,0,0,0-7.85-3.7l-.88,21.47L429,81.07l.25,8.83A5,5,0,0,0,433.11,87c1.32-2.54,5-14.82,5-14.82h0C441.41,62.09,440.71,57.53,439.17,55.37Z" transform="translate(-18.45 -34.69)"/><path class="cls-26" d="M429.44,73.24a7.57,7.57,0,0,1,2.07-3.42c1.23-1.32,6.13-2.75,8.36,1.41s-1.53,9.65-4.43,11.33c-3.71,2.16-5.89-.78-5.89-.78l.09,19.77h0c-1.73,4-9.54,7.56-14.19,7-3.7-.47-7.11-3.38-3.8-7.62l-.27-5.64s-4.95,1-7.4.75c-4.07-.42-6.78-3.49-8.22-7.81-2.32-6.94-3.35-12.58-2.37-26.5,1.08-15.25,18.71-16.28,28.54-10.76S429.44,73.24,429.44,73.24Z" transform="translate(-18.45 -34.69)"/><path class="cls-9" d="M387.78,45.89c-.45-3.33.7-6.9,4.19-8.08a7.37,7.37,0,0,1,7.74,1.29,6.74,6.74,0,0,1,12-1.27,6.58,6.58,0,0,1,4-2.79,7.76,7.76,0,0,1,5.94,1.08c1.42,1.05,3.09,3,2.67,5.53,2.81-1.13,5.74-.19,7.83,2.29a8.85,8.85,0,0,1,2,5.37,7.16,7.16,0,0,1-.43,3c-.4.91-1.22,1.51-1.46,2.54a7.93,7.93,0,0,0-.53,2.84c.23,1.68.6,3.36.82,5a40.63,40.63,0,0,1,.41,4.93,2.73,2.73,0,0,1-1.21,1.92,7.74,7.74,0,0,0-2.11,3c-.35.72-.69,2.5-1.38,3-2.13,1.49-2.37-3.33-2.47-4.26a50.05,50.05,0,0,1,0-6.41,7.7,7.7,0,0,1-5.67-2.6,6.64,6.64,0,0,1-1.41-3.14,10.8,10.8,0,0,1-.16-2c-1.39,2.3-4.62,3.24-6.92,3-3.86-.35-5.19-2-5.81-3.21a7.67,7.67,0,0,1-1.53,3.26,8.73,8.73,0,0,1-3.47,2,6.37,6.37,0,0,1-6.31-1.82c-1.57,2.25-5.55,1.25-6.43.62-2-1.45-2.65-3.18-2.87-5.65s.78-5.29,3.52-6.26A9.87,9.87,0,0,1,387.78,45.89Z" transform="translate(-18.45 -34.69)"/><path class="cls-28" d="M411.38,95.26s8.94-2.26,12-4.1a10.39,10.39,0,0,0,4.15-4.54,14.27,14.27,0,0,1-2.23,5.22c-2.16,3.07-13.82,5.83-13.82,5.83Z" transform="translate(-18.45 -34.69)"/><path class="cls-9" d="M411.88,72.58a1.94,1.94,0,1,0,1.84-2.11A2,2,0,0,0,411.88,72.58Z" transform="translate(-18.45 -34.69)"/><path class="cls-28" d="M408.89,87.05a2.5,2.5,0,1,0,2.36-2.73A2.57,2.57,0,0,0,408.89,87.05Z" transform="translate(-18.45 -34.69)"/><path class="cls-9" d="M413.49,65.92l4.12,2a2.42,2.42,0,0,0-1.09-3.15A2.24,2.24,0,0,0,413.49,65.92Z" transform="translate(-18.45 -34.69)"/><path class="cls-9" d="M395.57,67.65l3.51-3a2.21,2.21,0,0,0-3.2-.33A2.43,2.43,0,0,0,395.57,67.65Z" transform="translate(-18.45 -34.69)"/><path class="cls-9" d="M396.62,72.19a1.88,1.88,0,1,0,1.78-2A1.91,1.91,0,0,0,396.62,72.19Z" transform="translate(-18.45 -34.69)"/><polygon class="cls-28" points="387.45 35.28 387.39 47.11 381.13 45.32 387.45 35.28"/><path class="cls-2" d="M390.19,86.52a.44.44,0,0,0,.28-.2.45.45,0,0,0-.12-.64l-5.44-3.62a.46.46,0,0,0-.64.13.45.45,0,0,0,.13.64l5.43,3.62A.43.43,0,0,0,390.19,86.52Z" transform="translate(-18.45 -34.69)"/><path class="cls-2" d="M389.61,88.86a.48.48,0,0,0,.35-.35.47.47,0,0,0-.35-.56l-6.36-1.47a.46.46,0,0,0-.56.34.47.47,0,0,0,.35.56l6.36,1.48A.74.74,0,0,0,389.61,88.86Z" transform="translate(-18.45 -34.69)"/><path class="cls-2" d="M383.7,93.09l.06,0,6.13-2.24a.46.46,0,1,0-.32-.87l-6.13,2.24a.46.46,0,0,0-.27.6A.46.46,0,0,0,383.7,93.09Z" transform="translate(-18.45 -34.69)"/><path class="cls-2" d="M331.84,141.06a1.45,1.45,0,0,0,2.66-.15l4.56-11.25a1.45,1.45,0,1,0-2.72-1l-4.57,11.25A1.45,1.45,0,0,0,331.84,141.06Z" transform="translate(-18.45 -34.69)"/><path class="cls-2" d="M324.33,141a1.45,1.45,0,0,0,2.75-.66l-.15-14a1.45,1.45,0,0,0-2.89,0l.14,14A1.45,1.45,0,0,0,324.33,141Z" transform="translate(-18.45 -34.69)"/><path class="cls-2" d="M311.6,133.21l.09.17,6.89,10a1.45,1.45,0,0,0,2,.4,1.47,1.47,0,0,0,.39-2l-6.89-10a1.44,1.44,0,0,0-2.49,1.44Z" transform="translate(-18.45 -34.69)"/></g></g></svg>