<svg id="Layer_1" data-name="Layer 1" xmlns="http://www.w3.org/2000/svg" xmlns:xlink="http://www.w3.org/1999/xlink" viewBox="0 0 499.73 382.86"><defs><style>.cls-1,.cls-6{fill:#4da348;}.cls-1,.cls-13,.cls-16,.cls-2,.cls-24,.cls-25{opacity:0.1;}.cls-1,.cls-13,.cls-16,.cls-18,.cls-2,.cls-24{isolation:isolate;}.cls-2{fill:#319331;}.cls-19,.cls-3{fill:none;}.cls-3{stroke:#535461;stroke-width:2px;}.cls-18,.cls-19,.cls-22,.cls-26,.cls-27,.cls-3{stroke-miterlimit:10;}.cls-4{fill:#313896;}.cls-5{fill:#376d32;}.cls-7{fill:url(#linear-gradient);}.cls-8{fill:#f6f7f9;}.cls-9{opacity:0.2;}.cls-10{fill:url(#linear-gradient-2);}.cls-11{fill:#3d3d3d;}.cls-12{fill:#ffb9b9;}.cls-14{fill:#cbcdda;}.cls-15{fill:#4c4c78;}.cls-16{fill:#0f0f0f;}.cls-17{fill:#020202;}.cls-18,.cls-22{stroke:#454546;}.cls-18{opacity:0.05;}.cls-19{stroke:blue;}.cls-20{fill:#f7f9f7;}.cls-21{fill:#fcfcfc;}.cls-23{fill:#472727;}.cls-24{fill:#3a3a3a;}.cls-26{stroke:#444545;}.cls-27{fill:#080f08;stroke:#444;}</style><linearGradient id="linear-gradient" x1="-705.3" y1="729.87" x2="-705.3" y2="730.87" gradientTransform="matrix(221.82, 0, 0, -308.4, 156685.54, 225426.05)" gradientUnits="userSpaceOnUse"><stop offset="0" stop-color="gray" stop-opacity="0.25"/><stop offset="0.54" stop-color="gray" stop-opacity="0.12"/><stop offset="1" stop-color="gray" stop-opacity="0.1"/></linearGradient><linearGradient id="linear-gradient-2" x1="-702.45" y1="729.71" x2="-702.45" y2="730.71" gradientTransform="matrix(117.21, 0, 0, -268.88, 82455.48, 196554.03)" xlink:href="#linear-gradient"/></defs><g id="login-slider-1"><ellipse id="Ellipse_62" data-name="Ellipse 62" class="cls-1" cx="371.45" cy="362.5" rx="50.62" ry="12.66"/><path id="Path_1094" data-name="Path 1094" class="cls-2" d="M15.41,264.34c-5.73,2-12.68,6-11.5,12.33.58,3.23,3.2,5.62,5.68,7.64a160.89,160.89,0,0,0,34.69,21.48C50.21,308.48,56.52,311,61,315.92s6.56,11.91,8,18.6a151.39,151.39,0,0,1,2.5,48.27c17.88.34,37.68-.06,50.34-13,7.58-7.71,11.64-19.16,20.55-25.13,5.94-4,13.26-5,20.34-5.8Q213,333,263.7,331.8c14.17-.34,28.66-.46,41.89-5.4s25.25-15.74,27.93-30.38c.42-2.26.69-4.75,2.23-6.32,1.38-1.41,3.45-1.75,5.37-2L457.36,272c6.37-.87,12.95-1.8,18.31-5.4,5.19-3.5,8.69-9.08,12-14.53,7.67-12.47,15.62-27.54,10.31-41.8-4.25-11.39-15.66-17.95-26.56-22s-22.64-6.94-31.5-14.92c-13.48-12.16-16.47-32.33-20.27-50.44a294.65,294.65,0,0,0-14.43-48c-5.43-13.7-12.06-27.2-21.93-37.87S359.87,18.72,346,19.26c-18.05.72-33.93,14.79-52,13-15.28-1.46-27.7-13.7-41.46-21.32C228.15-2.55,199.33-1.36,172.61,2.86,144.28,7.32,115.78,15.14,92.83,32.7c-5.25,4-10.26,8.67-13.35,14.72C74.76,56.7,75.17,68,72.8,78.32,63.27,119.85,12.18,137.18,1.67,178.4c-3.73,14.64-1,30.51,5.88,44C14.92,237,29.71,243.21,37.3,255.71,32.23,260.34,22.13,262,15.41,264.34Z" transform="translate(0 0)"/><path id="Path_1095" data-name="Path 1095" class="cls-3" d="M380.4,365.86s-4.58-31.56,9.18-52.34a48.33,48.33,0,0,0,8.17-29.45,82,82,0,0,0-2.23-14.7" transform="translate(0 0)"/><path id="Path_1096" data-name="Path 1096" class="cls-4" d="M404.15,256.22c-.53,3.71-8.79,13.51-8.79,13.51s-5.16-11.73-4.65-15.44a6.79,6.79,0,0,1,13.46,1.82s0,.07,0,.11Z" transform="translate(0 0)"/><path id="Path_1097" data-name="Path 1097" class="cls-4" d="M412.32,278.37c-2.47,2.82-14.73,6.56-14.73,6.56s2-12.68,4.49-15.49a6.79,6.79,0,0,1,10.24,8.93Z" transform="translate(0 0)"/><path id="Path_1098" data-name="Path 1098" class="cls-4" d="M406.81,313.43c-3.56,1.2-16-1.75-16-1.75s8.14-9.9,11.7-11.1a6.79,6.79,0,0,1,4.33,12.85Z" transform="translate(0 0)"/><path id="Path_1099" data-name="Path 1099" class="cls-4" d="M396.65,339c-3.3,1.78-16.09,1-16.09,1s6.35-11.13,9.65-12.91A6.79,6.79,0,0,1,396.65,339Z" transform="translate(0 0)"/><path id="Path_1100" data-name="Path 1100" class="cls-4" d="M383.38,283.63c2.29,3,14.31,7.43,14.31,7.43s-1.28-12.76-3.57-15.74a6.79,6.79,0,0,0-10.84,8.18.64.64,0,0,0,.1.13Z" transform="translate(0 0)"/><path id="Path_1101" data-name="Path 1101" class="cls-4" d="M371.89,313.71c3.06,2.14,15.87,2.8,15.87,2.8s-5-11.8-8.1-13.94a6.79,6.79,0,0,0-7.88,11.06l.11.08Z" transform="translate(0 0)"/><path id="Path_1102" data-name="Path 1102" class="cls-4" d="M364.73,344.47c2.67,2.63,15.18,5.45,15.18,5.45s-3-12.48-5.64-15.1a6.79,6.79,0,0,0-9.63,9.57l.09.09Z" transform="translate(0 0)"/><path id="Path_1103" data-name="Path 1103" class="cls-5" d="M404.15,256.22c-.53,3.71-8.79,13.51-8.79,13.51s-5.16-11.73-4.65-15.44a6.79,6.79,0,0,1,13.46,1.82s0,.07,0,.11Z" transform="translate(0 0)"/><path id="Path_1104" data-name="Path 1104" class="cls-5" d="M412.32,278.37c-2.47,2.82-14.73,6.56-14.73,6.56s2-12.68,4.49-15.49a6.79,6.79,0,0,1,10.24,8.93Z" transform="translate(0 0)"/><path id="Path_1105" data-name="Path 1105" class="cls-5" d="M406.81,313.43c-3.56,1.2-16-1.75-16-1.75s8.14-9.9,11.7-11.1a6.79,6.79,0,0,1,4.33,12.85Z" transform="translate(0 0)"/><path id="Path_1106" data-name="Path 1106" class="cls-5" d="M396.65,339c-3.3,1.78-16.09,1-16.09,1s6.35-11.13,9.65-12.91A6.79,6.79,0,0,1,396.65,339Z" transform="translate(0 0)"/><path id="Path_1107" data-name="Path 1107" class="cls-5" d="M383.38,283.63c2.29,3,14.31,7.43,14.31,7.43s-1.28-12.76-3.57-15.74a6.79,6.79,0,0,0-10.84,8.18.64.64,0,0,0,.1.13Z" transform="translate(0 0)"/><path id="Path_1108" data-name="Path 1108" class="cls-5" d="M371.89,313.71c3.06,2.14,15.87,2.8,15.87,2.8s-5-11.8-8.1-13.94a6.79,6.79,0,0,0-7.88,11.06l.11.08Z" transform="translate(0 0)"/><path id="Path_1109" data-name="Path 1109" class="cls-5" d="M364.73,344.47c2.67,2.63,15.18,5.45,15.18,5.45s-3-12.48-5.64-15.1a6.79,6.79,0,0,0-9.63,9.57l.09.09Z" transform="translate(0 0)"/><path id="Path_1110" data-name="Path 1110" class="cls-3" d="M380.78,364.86s-17-27-12.8-51.59A48.33,48.33,0,0,0,363.52,283a80.06,80.06,0,0,0-8-12.52" transform="translate(0 0)"/><path id="Path_1111" data-name="Path 1111" class="cls-6" d="M358.07,255c1,3.61-2.57,15.92-2.57,15.92S346,262.31,345,258.68a6.79,6.79,0,0,1,13.05-3.75l0,.06Z" transform="translate(0 0)"/><path id="Path_1112" data-name="Path 1112" class="cls-6" d="M374.5,272c-1.1,3.58-10.8,12-10.8,12s-3.28-12.39-2.18-16a6.79,6.79,0,1,1,13,4h0Z" transform="translate(0 0)"/><path id="Path_1113" data-name="Path 1113" class="cls-6" d="M383.67,306.24c-2.76,2.54-15.37,4.88-15.37,4.88s3.43-12.35,6.19-14.86a6.79,6.79,0,1,1,9.27,9.93l-.09.08Z" transform="translate(0 0)"/><path id="Path_1114" data-name="Path 1114" class="cls-6" d="M384.76,333.75c-2.3,3-14.32,7.4-14.32,7.4s1.31-12.75,3.59-15.74A6.79,6.79,0,0,1,385,333.48l-.19.24Z" transform="translate(0 0)"/><path id="Path_1115" data-name="Path 1115" class="cls-6" d="M350.18,288.48c3.3,1.79,16.09,1,16.09,1s-6.33-11.14-9.62-12.93a6.79,6.79,0,1,0-6.58,11.88l.11.06Z" transform="translate(0 0)"/><path id="Path_1116" data-name="Path 1116" class="cls-6" d="M351.86,320.64c3.69.72,15.65-3.87,15.65-3.87s-9.37-8.74-13.05-9.46a6.79,6.79,0,0,0-2.89,13.27l.3.06Z" transform="translate(0 0)"/><path id="Path_1117" data-name="Path 1117" class="cls-6" d="M357.79,351.67c3.5,1.31,16.08-1.18,16.08-1.18S366.1,340.3,362.6,339a6.79,6.79,0,0,0-4.81,12.68Z" transform="translate(0 0)"/><path id="Path_1118" data-name="Path 1118" class="cls-7" d="M124.87,25.28v308.4H346.69V25.28Z" transform="translate(0 0)"/><rect id="Rectangle_876" data-name="Rectangle 876" class="cls-8" x="126.82" y="27.99" width="217.93" height="11.76"/><g id="Group_43" data-name="Group 43" class="cls-9"><rect id="Rectangle_877" data-name="Rectangle 877" class="cls-6" x="126.82" y="27.99" width="217.93" height="11.76"/></g><rect id="Rectangle_878" data-name="Rectangle 878" class="cls-8" x="126.82" y="39.74" width="217.93" height="291.24"/><circle id="Ellipse_63" data-name="Ellipse 63" class="cls-8" cx="132.55" cy="33.87" r="1.99"/><circle id="Ellipse_64" data-name="Ellipse 64" class="cls-8" cx="137.95" cy="33.87" r="1.99"/><circle id="Ellipse_65" data-name="Ellipse 65" class="cls-8" cx="143.35" cy="33.87" r="1.99"/><g id="Group_44" data-name="Group 44" class="cls-9"><rect id="Rectangle_879" data-name="Rectangle 879" class="cls-6" x="165.71" y="57.7" width="140.13" height="5.49"/></g><rect id="Rectangle_880" data-name="Rectangle 880" class="cls-6" x="287.23" y="57.7" width="18.62" height="5.49"/><g id="Group_45" data-name="Group 45" class="cls-9"><rect id="Rectangle_881" data-name="Rectangle 881" class="cls-6" x="147.59" y="88.95" width="176.37" height="63.17"/></g><rect id="Rectangle_882" data-name="Rectangle 882" class="cls-8" x="197.09" y="111.97" width="101.73" height="5.49"/><rect id="Rectangle_883" data-name="Rectangle 883" class="cls-8" x="197.09" y="123.61" width="52.78" height="5.49"/><rect id="Rectangle_884" data-name="Rectangle 884" class="cls-6" x="287.23" y="140.23" width="18.62" height="5.49"/><circle id="Ellipse_66" data-name="Ellipse 66" class="cls-8" cx="168.87" cy="120.53" r="9.97"/><g id="Group_46" data-name="Group 46" class="cls-9"><rect id="Rectangle_885" data-name="Rectangle 885" class="cls-6" x="147.59" y="169.82" width="176.37" height="63.17"/></g><rect id="Rectangle_886" data-name="Rectangle 886" class="cls-8" x="197.09" y="192.85" width="101.73" height="5.49"/><rect id="Rectangle_887" data-name="Rectangle 887" class="cls-8" x="197.09" y="204.48" width="52.78" height="5.49"/><rect id="Rectangle_888" data-name="Rectangle 888" class="cls-6" x="287.23" y="221.1" width="18.62" height="5.49"/><circle id="Ellipse_67" data-name="Ellipse 67" class="cls-8" cx="168.87" cy="201.41" r="9.97"/><g id="Group_47" data-name="Group 47" class="cls-9"><rect id="Rectangle_889" data-name="Rectangle 889" class="cls-6" x="147.59" y="250.7" width="176.37" height="63.17"/></g><rect id="Rectangle_890" data-name="Rectangle 890" class="cls-8" x="197.09" y="273.72" width="101.73" height="5.49"/><rect id="Rectangle_891" data-name="Rectangle 891" class="cls-8" x="197.09" y="285.35" width="52.78" height="5.49"/><rect id="Rectangle_892" data-name="Rectangle 892" class="cls-6" x="287.23" y="301.98" width="18.62" height="5.49"/><circle id="Ellipse_68" data-name="Ellipse 68" class="cls-8" cx="168.87" cy="282.28" r="9.97"/><path id="Path_1119" data-name="Path 1119" class="cls-10" d="M71.5,198.65c-1.69,7.7-4.74,17.18-4.74,17.18,3,3.52,16.17,4.15,16.17,4.15l0,0h.21c.09.48.2.95.32,1.4l-.06,1.33a3.7,3.7,0,0,0-.19,1.65c0,.12.06.25.1.37-.32,7-.54,14.4-.35,18.69a18.31,18.31,0,0,0,.38,3.62,13.68,13.68,0,0,1,.38,2.77c.22,6.29-1.31,16.84-1.31,16.84l.06.22c0,.18,0,.28,0,.28a5.36,5.36,0,0,1,.22,1.31c.11,5.3-2.93,16.83-2.93,16.83s-2.45,17.73-2.1,24.48a14.71,14.71,0,0,0,.12,1.62c.75,5.61,1.74,21.3,1.74,21.3a8.07,8.07,0,0,0,.58.73c-.09.35-.19.7-.31,1.06a29.41,29.41,0,0,0-1.46,11c0,.44.06.91.11,1.39.5,5.79,14.5,2.19,15.42,1.52.32-.23.09-2.33-.34-5l14.43,3.56s10.23,1.51,15.1,0,4.7-5.68-2.27-6.37c-4.87-.47-8.74-5-10.65-7.69.74-2,6.28-17.31,7.3-26.78a134.47,134.47,0,0,1,3.23-18.15l1.09-14.09,1.93-8.31,2.3-11c2.6-8.05,3.4-21.51,3.4-21.51l2-13.21a25.51,25.51,0,0,0,.47-4.36,48.85,48.85,0,0,1,5.58,1.5c3.14-2.45-1.32-26-1.32-26s-2.14-14.9-4-28.48a27.8,27.8,0,0,1,8.68.35l26.41.58a13,13,0,0,0,1.41-2.31h1.13a2,2,0,0,0,.33-.64l.47.09a39.75,39.75,0,0,1,5.05,1.53s8.34,1,7.08-7.73c-.94-6.51-8.35-4.15-12.06-2.53l-.47.21c0-.24,0-.38,0-.38l-1.2.22c-.07-.18-.16-.36-.25-.54,0,0-13-.5-23.46-2.07a31.49,31.49,0,0,1-15.77-7.76c-1.84-9.35-7.19-12.18-7.19-12.18a16,16,0,0,1-7.28-2.47,14.3,14.3,0,0,1-1.7-1.18l-.29.17,0,0c1.78-1.66,3.63-3.17,5.25-4.45l.73-.56a16.21,16.21,0,0,0,13.23-22.69c-.07-.16-.15-.32-.22-.47a3.61,3.61,0,0,0,3.2-3.16c.17-1.83-1.1-3.78-.27-5.43a4.94,4.94,0,0,0,.39-.76,2,2,0,0,0,.06-.77,5.39,5.39,0,0,0-2.18-3.93c-1.88-1.36-3.54-.67-5.59-.79a66.65,66.65,0,0,1-7.05-1.09,24.54,24.54,0,0,0-8.11-.27,10.38,10.38,0,0,0-6.84,4c-.67,1-1.12,2-1.75,3a39.53,39.53,0,0,1-2.45,3.18A9.65,9.65,0,0,0,99,97.78c.07,1.27.52,2.5.6,3.77a22,22,0,0,1-.26,3.54,15.6,15.6,0,0,0,.26,4.52,2.76,2.76,0,0,0,.52,1.28,2.63,2.63,0,0,0,1.13.73,9.88,9.88,0,0,0,1.4.44,20.23,20.23,0,0,1-2,3.52l-.7-.74-1.92,3-.07-.2a6,6,0,0,1-.31.55l-.2-.55a11.5,11.5,0,0,1-4.29,4.3c-5,3.14-12,4.45-12,4.45C69.89,128,72,139.64,72,139.64s-4.78,20.76-6.12,33.59,3.65,21,3.65,21Zm53.71-37.94c.43,1.43.82,2.79,1.15,4l-.21.08c-.24-1.1-.57-2.5-.93-4Zm-12.39-34.83-.06,0,0-.06ZM93.39,342.78c-.55-3.29-1.37-7.27-1.88-9.64.36-1.17.84-2.95,1.4-5.6,1.26-6,2-27,2-27l2.94-17.69A58.71,58.71,0,0,0,101.13,268c1.08-2.85,3.57-20.3,4-23.1-.11,1.93-.38,6.84-.53,12.29v.15c-.11,4.11-.14,8.52,0,12.18h0c0,1,.09,2,.16,2.9,0,.23,0,.47,0,.71.31,9.48-3.94,21.42-3.94,21.42s-1.89,8.85-1.61,13.79a8.93,8.93,0,0,0,.38,2.62,5.11,5.11,0,0,1,.21,1.22c.08,4.73-2.71,14.66-3.43,17.09C94.84,332.46,93.68,340.64,93.39,342.78Z" transform="translate(0 0)"/><path id="Path_1120" data-name="Path 1120" class="cls-11" d="M109,329.87s4.9,8.89,11.8,9.56,7.06,4.8,2.24,6.31-15,0-15,0L93.6,342.17s1.75-14.3,4.07-15S109,329.87,109,329.87Z" transform="translate(0 0)"/><path id="Path_1121" data-name="Path 1121" class="cls-11" d="M91.36,330S95,346.47,94.1,347.14s-14.79,4.23-15.3-1.5c0-.48-.08-.94-.1-1.38a29.14,29.14,0,0,1,1.45-10.89,9.14,9.14,0,0,0,.57-3.36C80.47,327.71,91.36,330,91.36,330Z" transform="translate(0 0)"/><path id="Path_1122" data-name="Path 1122" class="cls-12" d="M95.89,121.69s11.22,27.54,9.22,18.71c-1.31-5.86,7.22-13.65,13.12-18.23,3-2.33,5.33-3.83,5.33-3.83s-21.07-24.56-19.58-14a16,16,0,0,1-1.15,8.56,22.33,22.33,0,0,1-6.94,8.76Z" transform="translate(0 0)"/><path id="Path_1123" data-name="Path 1123" class="cls-12" d="M167.58,160.83a6.5,6.5,0,0,1,2.56.16,38,38,0,0,1,5,1.52s8.26,1,7-7.66c-.92-6.46-8.27-4.12-11.94-2.51-1.25.55-2.09,1-2.09,1Z" transform="translate(0 0)"/><path id="Path_1124" data-name="Path 1124" class="cls-13" d="M167.58,160.83a6.5,6.5,0,0,1,2.56.16c.9-2.27.22-7.64.07-8.65-1.25.55-2.08,1-2.08,1Z" transform="translate(0 0)"/><path id="Path_1125" data-name="Path 1125" class="cls-14" d="M167.53,152.58l2.16-.4s1.11,7.43-.33,9.37h-2.49Z" transform="translate(0 0)"/><path id="Path_1126" data-name="Path 1126" class="cls-15" d="M124.19,166.13s6.61-3.94,7.4,1,1.83,13.51,1.83,13.51l1.83,10.85,2.36,21.73-.33,3.7s-7-2.35-8.68-1.53-3-9.12-3-9.12L122.86,196l-.44-21.86Z" transform="translate(0 0)"/><path id="Path_1127" data-name="Path 1127" class="cls-16" d="M124.19,166.13s6.61-3.94,7.4,1,1.83,13.51,1.83,13.51l1.83,10.85,2.36,21.73-.33,3.7s-7-2.35-8.68-1.53-3-9.12-3-9.12L122.86,196l-.44-21.86Z" transform="translate(0 0)"/><path id="Path_1128" data-name="Path 1128" class="cls-17" d="M127.74,140.53s6.86,7.73,17.27,9.29,23.25,2.05,23.25,2.05a11.26,11.26,0,0,1-1.43,12l-26.18-.57s-5.8-1.26-10.29,0Z" transform="translate(0 0)"/><path id="Path_1129" data-name="Path 1129" class="cls-18" d="M127.56,140.15s6.86,7.73,17.27,9.29,23.25,2.05,23.25,2.05a11.28,11.28,0,0,1-1.43,12l-26.19-.57s-5.8-1.26-10.28,0Z" transform="translate(0 0)"/><path id="Path_1130" data-name="Path 1130" class="cls-19" d="M184.66,172.26" transform="translate(0 0)"/><path id="Path_1131" data-name="Path 1131" class="cls-13" d="M104,112.68c2.56,5.47,7,9.5,13.45,9.5h.84c3-2.33,5.33-3.83,5.33-3.83s-21.08-24.56-19.58-14C104.45,107.61,105,110.25,104,112.68Z" transform="translate(0 0)"/><path id="Path_1132" data-name="Path 1132" class="cls-12" d="M101.34,105.63A16,16,0,1,0,106,94.26,16,16,0,0,0,101.34,105.63Z" transform="translate(0 0)"/><path id="Path_1133" data-name="Path 1133" class="cls-20" d="M91.52,203.78s35.82,3.16,37.16-1.41-3.66-17-3.66-17l1.6-17.29.06-.66s-4.47-18.7-4.33-20.18-7.22-17.05-8.74-20.25l-.27-.57-.29.16-.12.07-1.75,1-6.94-1.64-8.35-4.37-.79,47.83Z" transform="translate(0 0)"/><path id="Path_1134" data-name="Path 1134" class="cls-13" d="M110.14,127a2.85,2.85,0,0,1,3.41,1.79,26.56,26.56,0,0,0,1.31,3.06l1,5.68,1.75,9,1.28,39.79-.57,7.08-3.2-5.68-.58-37.16v-4.64a33.66,33.66,0,0,0-2.67-11.61l-.44-1-2.78-3.58Z" transform="translate(0 0)"/><path id="Path_1135" data-name="Path 1135" d="M110.64,126.52a2.86,2.86,0,0,1,3.41,1.79,25.83,25.83,0,0,0,1.31,3.06l1,5.68,1.75,9,1.29,39.78-.59,7.06-3.2-5.68L115,150V145.4a33.65,33.65,0,0,0-2.66-11.61l-.44-1-2.79-3.56Z" transform="translate(0 0)"/><path id="Path_1136" data-name="Path 1136" class="cls-13" d="M100.17,116.24s8.48,9,11.47,10.05c0,0-1.5,6.82-3,8.15,0,0-8.9-9.07-10.49-9.81l-1.31-3.23Z" transform="translate(0 0)"/><path id="Path_1137" data-name="Path 1137" class="cls-21" d="M100.17,115.76s8.48,9,11.47,10c0,0-1.5,6.82-3,8.15,0,0-8.9-9.07-10.49-9.81l-1.31-3.23Z" transform="translate(0 0)"/><path id="Path_1138" data-name="Path 1138" class="cls-13" d="M112.85,126.45l.08.23,2.72,7.28,4.86,13.75s0,.14.13.4c.8,2.5,5.13,16.08,6,20l.06-.67s-4.47-18.72-4.32-20.2-7.23-17.05-8.74-20.24c-.24-.17-.44-.31-.56-.41Z" transform="translate(0 0)"/><path id="Path_1139" data-name="Path 1139" class="cls-22" d="M113.34,126.44l2.81,7.52L121,147.71l.14.4c.85,2.67,5.71,17.88,6.12,20.67.43,3.06,6.55,19.58,6.55,19.58l3.5,28.61c3.12-2.43-1.31-25.79-1.31-25.79s-5-34.66-6.17-46.19-7.57-14.94-7.57-14.94a15.85,15.85,0,0,1-7.23-2.44A15,15,0,0,1,113.34,126.44Z" transform="translate(0 0)"/><path id="Path_1140" data-name="Path 1140" class="cls-13" d="M78.14,310.5c.75,5.57,1.75,21.11,1.75,21.11,3.5,5.25,11.23,2.41,11.23,2.41s.82-1.58,2.07-7.48,2-26.76,2-26.76l2.91-17.54a57.54,57.54,0,0,0,3.24-14.71c1.16-3.06,4-23.27,4-23.27s-1.17,18.12-.44,27.67-3.82,22.45-3.82,22.45-2.58,12.05-1.24,15.79-3.33,19.2-3.33,19.2c.41,4.49,13.63,2.65,13.63,2.65s6.23-16.7,7.31-26.76a135.26,135.26,0,0,1,3.2-18l1.08-14,1.92-8.22,2.28-10.89c2.58-8,3.37-21.32,3.37-21.32l2-13.09c1.31-6.47-.38-14.06-1.51-18.05-.49-1.72-.88-2.77-.88-2.77-1.14.81-7.7,1.75-11.1,2.54a19.38,19.38,0,0,1-5.68.44,126.47,126.47,0,0,1-25.31-4.63l-.88-.26-.17,1.5-.41,3.56-.73,6.33s-2.25,33.74-.92,38.32-.91,19.93-.91,19.93c1.24,3.64-2.66,18.46-2.66,18.46S77.4,304.93,78.14,310.5Z" transform="translate(0 0)"/><path id="Path_1141" data-name="Path 1141" class="cls-22" d="M78.14,310c.75,5.57,1.75,21.11,1.75,21.11,3.5,5.25,11.23,2.41,11.23,2.41s.82-1.58,2.07-7.48,2-26.76,2-26.76l2.91-17.54A57.54,57.54,0,0,0,101.34,267c1.16-3.06,4-23.27,4-23.27s-1.17,18.12-.44,27.67-3.82,22.45-3.82,22.45-2.58,12.05-1.24,15.79-3.33,19.2-3.33,19.2c.41,4.49,13.63,2.66,13.63,2.66s6.23-16.7,7.31-26.77a135.55,135.55,0,0,1,3.2-18l1.08-14,1.91-8.23,2.29-10.89c2.57-8,3.37-21.32,3.37-21.32l2-13.09c1.31-6.47-.38-14.06-1.52-18.05-.49-1.71-.87-2.77-.87-2.77-1.15.81-7.7,1.75-11.1,2.54a19.38,19.38,0,0,1-5.68.44,126.56,126.56,0,0,1-25.32-4.63l-.87-.26-.18,1.5-.41,3.56-.72,6.33s-2.25,33.74-.92,38.32-.9,19.93-.9,19.93c1.25,3.65-2.66,18.47-2.66,18.47S77.4,304.43,78.14,310Z" transform="translate(0 0)"/><path id="Path_1142" data-name="Path 1142" class="cls-13" d="M101.34,105.63a16,16,0,0,0,2.13,8,8.49,8.49,0,0,0,7-1.7,34.93,34.93,0,0,0,3.21-4,22.41,22.41,0,0,1,2.3-2.27,7.1,7.1,0,0,1,1.81-1.31,2.45,2.45,0,0,1,2.19,0c.87.49,1.19,1.59,1.68,2.47a3.37,3.37,0,0,0,1.84,1.6,2,2,0,0,0,2.19-.75c.54-.94.14-2.4,1.06-3a6.74,6.74,0,0,1,.74-.3c1.18-.53,1.31-2.11,1.41-3.4a2.14,2.14,0,0,1,.72-1.69,3.28,3.28,0,0,1,1.86-.15,2.59,2.59,0,0,0,.56-.05,16.06,16.06,0,0,0-30.74,6.51Z" transform="translate(0 0)"/><path id="Path_1143" data-name="Path 1143" class="cls-23" d="M133.05,84.76a5.34,5.34,0,0,1,2.16,3.89,2.17,2.17,0,0,1-.05.76,5.45,5.45,0,0,1-.39.76c-.82,1.63.43,3.56.27,5.38a3.58,3.58,0,0,1-3.5,3.14,3.37,3.37,0,0,0-1.86.15,2.08,2.08,0,0,0-.73,1.69c-.1,1.29-.23,2.87-1.4,3.4a6.21,6.21,0,0,0-.75.31c-.91.57-.51,2-1,3a2,2,0,0,1-2.19.75,3.33,3.33,0,0,1-1.84-1.6c-.5-.87-.8-2-1.69-2.47a2.49,2.49,0,0,0-2.18,0,7.1,7.1,0,0,0-1.81,1.31,23.48,23.48,0,0,0-2.3,2.27,35,35,0,0,1-3.22,4c-2.41,2.12-6.12,2.33-9.09,1.12a2.71,2.71,0,0,1-1.13-.72,2.79,2.79,0,0,1-.52-1.3,15.26,15.26,0,0,1-.26-4.47,22.81,22.81,0,0,0,.26-3.5c-.08-1.26-.53-2.48-.59-3.74a9.61,9.61,0,0,1,2.36-6.12c.81-1,1.72-2,2.43-3.14s1.06-2.06,1.72-3a10.49,10.49,0,0,1,6.78-4,23.8,23.8,0,0,1,8,.26,66.13,66.13,0,0,0,7,1.09C129.54,84.08,131.19,83.39,133.05,84.76Z" transform="translate(0 0)"/><path id="Path_1144" data-name="Path 1144" class="cls-13" d="M113.34,126.44l2.81,7.52L121,147.71l.14.4h0L115,127.61A16.74,16.74,0,0,1,113.34,126.44Z" transform="translate(0 0)"/><path id="Path_1145" data-name="Path 1145" class="cls-12" d="M83,212.51s-.3,9.1,2.16,11.36l6.52-12.3-5.48-2.65Z" transform="translate(0 0)"/><path id="Path_1146" data-name="Path 1146" class="cls-13" d="M67.77,215.83c3,3.5,16,4.11,16,4.11L96.7,199.62s3.06-2.12,8.79-11.66,5.54-16.89,5.24-22.37-3.93-21.26-3.93-21.26c-.56-3.55-8.6-25.8-8.6-25.8A11.36,11.36,0,0,1,94,122.79c-5,3.11-11.9,4.38-11.9,4.38-11.16,1.62-9.1,13.15-9.1,13.15s-.14,44.84.56,50.2S67.77,215.83,67.77,215.83Z" transform="translate(0 0)"/><path id="Path_1147" data-name="Path 1147" class="cls-14" d="M82.84,214.25l.37,3.32,4.54-1.66,3.32-5-2.49-1.95Z" transform="translate(0 0)"/><path id="Path_1148" data-name="Path 1148" class="cls-24" d="M83,201.37l2.37.24,22.85,2.28a36.77,36.77,0,0,0,11-.54l10.6-2.12c-.49-1.71-.88-2.77-.88-2.77-1.14.81-7.7,1.75-11.1,2.54a19.38,19.38,0,0,1-5.68.44,126.75,126.75,0,0,1-25.34-4.63l-1,1.23Z" transform="translate(0 0)"/><g id="Group_48" data-name="Group 48" class="cls-25"><path id="Path_1149" data-name="Path 1149" d="M128.66,198.59l.22-.13,0,.06Z" transform="translate(0 0)"/><path id="Path_1150" data-name="Path 1150" d="M80.12,284.65s3.91-14.82,2.66-18.47c0,0,2.24-15.36.91-19.93s.92-38.32.92-38.32l.74-6.33.43-3.56.18-1.5s.3.1.87.26l.53.16-.12.58-.42,3.57-.73,6.33s-2.25,33.74-.92,38.31-.91,19.93-.91,19.93c1.24,3.65-2.66,18.47-2.66,18.47s-2.74,19.79-2,25.36,1.75,21.11,1.75,21.11c2.55,3.83,7.36,3.35,9.77,2.81l-.05.1s-7.73,2.82-11.22-2.41c0,0-1-15.55-1.75-21.12S80.12,284.65,80.12,284.65Z" transform="translate(0 0)"/><path id="Path_1151" data-name="Path 1151" d="M99.82,309.67c-1.32-3.74,1.25-15.79,1.25-15.79s4.56-12.89,3.81-22.45c-.31-4-.29-9.44-.16-14.47,1.07-6.47,2.08-13.7,2.08-13.7s-1.17,18.11-.42,27.68-3.82,22.44-3.82,22.44-2.58,12.05-1.25,15.79S98,328.37,98,328.37c.33,3.6,8.87,3.14,12.24,2.81l-.13.35s-13.21,1.83-13.63-2.66C96.49,328.87,101.15,313.4,99.82,309.67Z" transform="translate(0 0)"/></g><path id="Path_1152" data-name="Path 1152" class="cls-26" d="M67.28,215.83c3,3.5,16,4.11,16,4.11L96.2,199.62S99.26,197.5,105,188s5.55-16.89,5.25-22.38-3.94-21.26-3.94-21.26c-.55-3.55-8.59-25.79-8.59-25.79a11.39,11.39,0,0,1-4.26,4.26c-5,3.1-11.9,4.38-11.9,4.38-11.16,1.62-9.1,13.15-9.1,13.15s-.12,44.82.57,50.18S67.28,215.83,67.28,215.83Z" transform="translate(0 0)"/><path id="Path_1153" data-name="Path 1153" class="cls-13" d="M95.33,129.55l2.8,1.06-1.87,1.31,14,33.66c-.33-5.48-3.94-21.26-3.94-21.26-.55-3.55-8.59-25.79-8.59-25.79a11.46,11.46,0,0,1-4.26,4.26Z" transform="translate(0 0)"/><path id="Path_1154" data-name="Path 1154" class="cls-13" d="M92,189.52l-14.27-3.68-1.88,5.8L90.4,195.2Z" transform="translate(0 0)"/><path id="Path_1155" data-name="Path 1155" class="cls-13" d="M83.79,131.92s6.49,6.12,4.06,19.7S81.49,180,81.49,180l10.56,29.24s-7.36,7.66-11,8.6L70.54,194.45s-4.92-8.1-3.62-20.82,6-33.29,6-33.29S73,127.81,83.79,131.92Z" transform="translate(0 0)"/><path id="Path_1156" data-name="Path 1156" class="cls-27" d="M83.3,131.92s6.49,6.12,4.06,19.7S81,180,81,180l10.52,29.24s-7.34,7.66-11,8.6L70,194.45s-4.92-8.1-3.62-20.82,6-33.29,6-33.29S72.45,127.81,83.3,131.92Z" transform="translate(0 0)"/><path id="Path_1157" data-name="Path 1157" class="cls-13" d="M91.17,209.85s-8.22,11.36-7.6,14.42,3,1.41,3,1.41l3.26-4.45,2.91-8.3S92.48,209.36,91.17,209.85Z" transform="translate(0 0)"/><path id="Path_1158" data-name="Path 1158" class="cls-13" d="M92.19,209.85S84,221.21,84.58,224.27s3,1.41,3,1.41l3.24-4.44,2.91-8.31S93.49,209.36,92.19,209.85Z" transform="translate(0 0)"/><path id="Path_1159" data-name="Path 1159" d="M91.69,209.85s-8.23,11.36-7.6,14.42,3,1.41,3,1.41l3.24-4.44,2.91-8.31S93,209.36,91.69,209.85Z" transform="translate(0 0)"/></g></svg>